<svg xmlns="http://www.w3.org/2000/svg" width="92.914" height="93"><defs><style>.prefix__cls-1,.prefix__cls-2{fill:none;stroke-linecap:round;stroke-linejoin:round}.prefix__cls-1{stroke:#14c8f0;stroke-width:3px}.prefix__cls-2{stroke:#b2b2ae;stroke-width:2px}</style></defs><g id="prefix__icn-no-synthetic-additives" transform="translate(-210.5 -129.5)"><path id="prefix__Path_4067" d="M257.276 160.424c-5.871-8.171-12-17.169-15.276-29.424-7.5 28.074-30 39.058-30 62.143C212 208.762 226.143 221 242 221a31.3 31.3 0 0021.626-8.709" class="prefix__cls-1" data-name="Path 4067"/><path id="prefix__Path_4068" d="M243.014 176.512a25.482 25.482 0 00.549-5.274c0-8.091-2.764-14.7-6.679-21.073" class="prefix__cls-1" data-name="Path 4068" transform="translate(28.438 21.904)"/><ellipse id="prefix__Ellipse_1014" cx="21" cy="21.5" class="prefix__cls-2" data-name="Ellipse 1014" rx="21" ry="21.5" transform="translate(251 163)"/><path id="prefix__Line_24" d="M0 0l17 17" class="prefix__cls-2" data-name="Line 24" transform="translate(285 202)"/><path id="prefix__Path_4069" d="M235.641 211.516a20.765 20.765 0 01-14.747-15.939" data-name="Path 4069" stroke="#90ebff" stroke-width="3" fill="none" stroke-linecap="round" stroke-linejoin="round"/><text id="prefix___100_Pure" data-name="100% Pure" transform="translate(268 144)" fill="#14c8f0" font-size="13" font-family="Prometo-Bold,Prometo" font-weight="700"><tspan x="0" y="0">100%</tspan><tspan x="0" y="13">Pure</tspan></text></g></svg>