<svg xmlns="http://www.w3.org/2000/svg" width="31.621" height="31.621"><path d="M0 0h31.621v31.621H0z" data-name="Rectangle 5" fill="none"/><g data-name="calendar-with-a-clock-time-tools (2)"><path d="M10.198 8.81V6.323a.622.622 0 111.244 0V8.81a.622.622 0 01-1.244 0zm10.572.622a.622.622 0 00.622-.622V6.323a.622.622 0 00-1.244 0V8.81a.622.622 0 00.622.622zm6.839 11.194a4.975 4.975 0 11-4.974-4.975 4.975 4.975 0 014.974 4.975zm-1.244 0a3.731 3.731 0 10-3.731 3.731 3.736 3.736 0 003.733-3.731zm-13.68-7.462h-2.487v2.487h2.487zm-2.487 6.219h2.487v-2.488h-2.487zm3.731-3.732h2.487v-2.487h-2.487zm0 3.731h2.487v-2.487h-2.487zm-4.975 1.119V11.92h13.681v2.487h1.244V9.556a1.357 1.357 0 00-1.347-1.368h-.523v.623a1.244 1.244 0 11-2.487 0v-.622h-7.459v.622a1.244 1.244 0 11-2.487 0v-.622h-.518a1.358 1.358 0 00-1.349 1.367v10.945a1.359 1.359 0 001.348 1.368h7.359v-1.243H9.058a.118.118 0 01-.104-.125zm11.194-4.85v-2.487H17.66v2.487zm4.353 4.975h-1.866V18.76a.622.622 0 00-1.244 0v2.488a.621.621 0 00.622.622h2.488a.622.622 0 000-1.244z" data-name="Path 570"/></g></svg>