<svg xmlns="http://www.w3.org/2000/svg" width="37.861" height="89.711"><path d="M27.815 35.622a9.139 9.139 0 01-6.255-2.875l-6.059-5.757c-3.519-3.339-7.392-3.339-10.909 0l-3.029 2.881-.8-5.66 3.029-2.875c4.033-3.834 8.476-3.834 12.51 0l6.059 5.757c3.519 3.333 7.39 3.333 10.907 0l3.031-2.881.8 5.66-3.031 2.875a9.138 9.138 0 01-6.253 2.875z" fill="#61a0fb"/><path d="M27.815 30.622a9.139 9.139 0 01-6.255-2.875l-6.059-5.757c-3.519-3.339-7.392-3.339-10.909 0l-3.029 2.881-.8-5.66 3.029-2.875c4.033-3.834 8.476-3.834 12.51 0l6.059 5.757c3.519 3.333 7.39 3.333 10.907 0l3.031-2.881.8 5.66-3.031 2.875a9.138 9.138 0 01-6.253 2.875z" fill="#61a0fb"/><path d="M29.905 59.673H7.96A7.968 7.968 0 010 51.713V15.42a7.969 7.969 0 017.96-7.96h21.945a7.969 7.969 0 017.96 7.96v36.294a7.969 7.969 0 01-7.96 7.959zM7.96 9.786a5.64 5.64 0 00-5.634 5.634v36.294a5.642 5.642 0 005.634 5.634h21.945a5.642 5.642 0 005.634-5.634V15.42a5.64 5.64 0 00-5.634-5.634z" fill="#fff"/><path d="M18.93 66.186a6.741 6.741 0 01-6.732-6.734v-.942h2.326v.942a4.407 4.407 0 108.813 0v-.942h2.322v.942a6.74 6.74 0 01-6.729 6.734z" fill="#fff"/><path fill="#fff" d="M17.767 65.023h2.326v8.768h-2.326zm0 15.919h2.326v8.768h-2.326zM6.788 34.973h6.902v2.326H6.788zm-.159 6.317h7.061v2.326H6.629zm0 6.318h7.061v2.326H6.629z"/><path d="M23.349 82.473H14.51v-12.1h8.839zm-6.513-2.326h4.187v-7.443h-4.187z" fill="#fff"/><g transform="translate(15.48)" fill="none" stroke="#fff" stroke-width="2"><circle cx="3.398" cy="3.398" r="3.398" stroke="none"/><circle cx="3.398" cy="3.398" r="2.398"/></g><g transform="translate(11.327 5.663)" fill="#fff" stroke="#fff"><rect width="15.103" height="3.398" rx="1.699" stroke="none"/><rect x=".5" y=".5" width="14.103" height="2.398" rx="1.199" fill="none"/></g></svg>