<svg xmlns="http://www.w3.org/2000/svg" width="37.746" height="37.746"><path d="M34.212 17.157A15.432 15.432 0 0020.589 3.534V0h-3.432v3.534A15.432 15.432 0 003.534 17.157H0v3.431h3.534a15.432 15.432 0 0013.623 13.624v3.534h3.431v-3.534a15.432 15.432 0 0013.624-13.623h3.534v-3.432zM18.873 30.883a12.01 12.01 0 1112.01-12.01 12 12 0 01-12.01 12.01z" data-name="Icon material-location-searching" fill="#222"/><path d="M18.911 12.215a5.018 5.018 0 00-5.021 5.021c0 3.766 5.021 9.326 5.021 9.326s5.021-5.559 5.021-9.326a5.018 5.018 0 00-5.021-5.021zm0 6.815a1.793 1.793 0 111.793-1.793 1.794 1.794 0 01-1.793 1.793z" data-name="Icon material-location-on" fill="#14c8f0"/></svg>