<svg xmlns="http://www.w3.org/2000/svg" width="106.065" height="106.065"><defs><style>.prefix__cls-4,.prefix__cls-6{fill:none}.prefix__cls-4{stroke:#c9c9c9;stroke-width:4px}.prefix__cls-5{stroke:none}</style></defs><g id="prefix__icn-alternative-to-opiates" transform="translate(-1446.968 -1750.967)"><g id="prefix__Component_15_3" data-name="Component 15 – 3" transform="translate(1476.646 1776.373)" stroke-width="2"><path id="prefix__Icon_awesome-prescription-bottle-alt" d="M35.886 0H2.392A2.4 2.4 0 000 2.393v4.785A2.4 2.4 0 002.392 9.57h33.494a2.4 2.4 0 002.392-2.393V2.393A2.4 2.4 0 0035.886 0zM3.19 47.852a3.2 3.2 0 003.19 3.19H31.9a3.2 3.2 0 003.19-3.19V12.761H3.19zm6.38-18.343a.8.8 0 01.8-.8h5.58v-5.58a.8.8 0 01.8-.8h4.785a.8.8 0 01.8.8v5.583h5.582a.8.8 0 01.8.8v4.785a.8.8 0 01-.8.8h-5.588v5.583a.8.8 0 01-.8.8h-4.782a.8.8 0 01-.8-.8v-5.588h-5.58a.8.8 0 01-.8-.8z" data-name="Icon awesome-prescription-bottle-alt" stroke="#90ebff" fill="none"/><g id="prefix__Group_451" data-name="Group 451" transform="translate(24.852 35.988)" stroke="#14c8f0"><g id="prefix__Rectangle_66" data-name="Rectangle 66" transform="rotate(45 9.023 21.783)" fill="none"><rect width="11.343" height="25.521" class="prefix__cls-5" rx="5.672"/><rect width="9.343" height="23.521" x="1" y="1" class="prefix__cls-6" rx="4.672"/></g><g id="prefix__Rectangle_67" data-name="Rectangle 67" fill="#14c8f0"><path d="M0 0h11.343v7.089a5.671 5.671 0 01-5.671 5.671A5.671 5.671 0 010 7.089V0z" class="prefix__cls-5" transform="rotate(45 -6.38 15.404)"/><path d="M1.519 1h8.3a.519.519 0 01.519.519v5.57a4.671 4.671 0 01-4.671 4.671A4.671 4.671 0 011 7.089v-5.57A.519.519 0 011.519 1z" class="prefix__cls-6" transform="rotate(45 -6.38 15.404)"/></g></g></g><g id="prefix__Group_469" data-name="Group 469"><g id="prefix__Group_452" data-name="Group 452" transform="translate(1446.968 1750.967)"><g id="prefix__Ellipse_1009" class="prefix__cls-4" data-name="Ellipse 1009"><circle cx="53.032" cy="53.032" r="53.032" class="prefix__cls-5"/><circle cx="53.032" cy="53.032" r="51.032" class="prefix__cls-6"/></g></g><path id="prefix__Line_23" d="M104.65 0H0" class="prefix__cls-4" data-name="Line 23" transform="rotate(45 -1401.708 2648.894)"/></g></g></svg>