<svg xmlns="http://www.w3.org/2000/svg" width="374.828" height="333.202"><defs><style>.prefix__cls-2{fill:#14c8f0}</style></defs><g id="prefix__icn-partial-logo" transform="rotate(13 11443.944 2880.193)" opacity=".547"><path id="prefix__Path_4010" d="M129.04 150.53l-7.213 1.1c-15.3 2.32-31.589 13.281-43.546 29.343-12.255 16.359-14.62 45.836-14.709 47.071l-.952 12.418 11.556-4.833c1.19-.506 29.566-12.493 41.732-28.823s17.52-34.563 14.575-49.168zm-25.417 47.16c-4.908 6.589-14.426 12.939-22.68 17.564 1.8-8.641 4.848-18.739 9.622-25.134 7.183-9.637 16.36-17.118 25.283-20.9-.937 8.854-5.235 19.19-12.225 28.47z" class="prefix__cls-2" data-name="Path 4010" transform="translate(-280.426 2675.104)"/><path id="prefix__Path_4011" d="M71.472 125.646c18.085 13.385 39.01 21 57.422 21a61.48 61.48 0 008.566-.595l7.229-1.051-.7-7.258c-1.844-19.334-15.735-40.289-37.181-56.084S44.523 61.383 42.8 61.2L30.35 60l4.462 11.66c.654 1.487 14.988 37.969 36.66 53.986zm26.339-31.663c14.62 10.782 25.283 24.495 29.313 37.315-14.768-.506-31.619-6.99-46.521-17.981-11.02-8.135-20.211-23.8-25.774-34.786 12.821 2.394 31.694 7.124 42.982 15.452z" class="prefix__cls-2" data-name="Path 4011" transform="translate(-296.149 2630.995)"/><path id="prefix__Path_4012" d="M194.472 180.969c-11.972-16.047-28.258-27.008-43.546-29.328l-7.228-1.1-1.487 7.154c-2.974 14.6 2.5 32.987 14.575 49.168s40.542 28.257 41.747 28.822l11.541 4.834-.952-12.478c-.045-1.251-2.395-30.713-14.65-47.072zm-25.417 16.716c-6.975-9.355-11.288-19.617-12.166-28.465 8.923 3.777 18.055 11.258 25.283 20.9 4.744 6.365 7.793 16.464 9.608 25.119-8.254-4.615-17.757-10.965-22.725-17.554z" class="prefix__cls-2" data-name="Path 4012" transform="translate(-242.034 2675.11)"/><path id="prefix__Path_4013" d="M68.175 174.973c20.449-4.12 39.352-13.653 51.845-26.131a61.582 61.582 0 005.458-6.187l4.253-5.547-4.908-3.971c-13.088-10.574-35.337-13.98-59.489-9.1C40.9 128.958 10.559 154 9.28 155.059L0 162.718l10.217 4.075c1.354.536 33.404 13.118 57.958 8.18zm-1.487-37.181c16.523-3.331 32.139-2.171 42.743 2.974-10.411 9.726-25.744 17.192-42.594 20.583-12.463 2.513-28.257-.788-38.787-3.778 10.143-7.332 25.833-17.267 38.609-19.825z" class="prefix__cls-2" data-name="Path 4013" transform="translate(-310.937 2661.132)"/><path id="prefix__Path_4014" d="M282.529 166.806l10.2-4.075-9.221-7.674c-1.279-1.056-31.634-26.1-56.054-31.024s-46.461-1.487-59.489 9.1L163 137.106l4.268 5.547a61.436 61.436 0 005.443 6.187c12.508 12.493 31.4 22.026 51.86 26.145 24.54 4.938 56.605-7.644 57.958-8.179zm-17.847-9.325c-10.53 2.974-26.324 6.291-38.787 3.777-16.851-3.391-32.258-10.857-42.594-20.583 10.589-5.086 26.2-6.246 42.743-2.974 12.805 2.617 28.51 12.552 38.683 19.78z" class="prefix__cls-2" data-name="Path 4014" transform="translate(-231.517 2661.119)"/><path id="prefix__Path_4015" d="M183.332 125.24H95.63v15.318h36.2v94.87h15.319v-94.87h36.184z" class="prefix__cls-2" data-name="Path 4015" transform="translate(-264.342 2662.782)"/><path id="prefix__Path_4016" d="M143 145.015l7.228 1.056a61.335 61.335 0 008.567.595c18.4 0 39.323-7.659 57.422-21 21.714-16.018 36.036-52.5 36.646-54.046l4.462-11.66-12.448 1.264c-1.725.178-42.505 4.462-64.115 20.449s-35.277 36.75-37.181 56.083zM189.922 94c11.288-8.329 30.146-13.058 42.966-15.452-5.547 11.05-14.753 26.651-25.774 34.786-14.872 10.991-31.737 17.475-46.521 17.981 4.03-12.82 14.664-26.532 29.3-37.315z" class="prefix__cls-2" data-name="Path 4016" transform="translate(-241.262 2630.975)"/><path id="prefix__Path_4017" d="M134.563 174.542l5.785-6.663c14.426-16.627 23.037-45.777 23.037-77.976 0-32.63-21.089-74.644-22-76.414L134.563 0l-6.841 13.489c-.892 1.77-21.981 43.784-21.981 76.414 0 32.2 8.611 61.348 23.037 77.976zm0-138.848c5.949 14.411 13.489 36.393 13.489 54.21 0 23.29-5.027 45.093-13.489 59.7C126.1 135 121 113.193 121 89.9c0-17.784 7.658-39.78 13.563-54.206z" class="prefix__cls-2" data-name="Path 4017" transform="translate(-259.416 2601.761)"/></g></svg>