<svg data-name="Layer 1" xmlns="http://www.w3.org/2000/svg" width="131.07" height="155.233"><path data-name="Path 1" d="M14.237 154.678a2.887 2.887 0 01-.487.3 2.714 2.714 0 01-.56.189 2.888 2.888 0 01-.665.068 2.65 2.65 0 01-2.493-1.676 2.9 2.9 0 01-.2-1.089 2.855 2.855 0 01.2-1.084 2.724 2.724 0 01.566-.885 2.62 2.62 0 01.859-.6 2.682 2.682 0 011.089-.215 3.243 3.243 0 01.665.058 2.937 2.937 0 01.55.173 2.415 2.415 0 01.466.272 4.234 4.234 0 01.414.346l-.414.445a3.363 3.363 0 00-.739-.524 2.058 2.058 0 00-.948-.2 1.981 1.981 0 00-.828.168 2.016 2.016 0 00-.66.466 2.141 2.141 0 00-.435.7 2.514 2.514 0 000 1.749 2.142 2.142 0 00.435.7 2.047 2.047 0 00.66.477 1.985 1.985 0 00.828.173 2.044 2.044 0 00.948-.2 3.469 3.469 0 00.786-.571l.4.388a3.338 3.338 0 01-.435.382z" fill="#231f20"/><path data-name="Path 2" d="M23.183 149.864a1.8 1.8 0 01.55.272 1.168 1.168 0 01.351.419 1.242 1.242 0 01.126.56 1.383 1.383 0 01-.073.466 1.252 1.252 0 01-.466.608 1.4 1.4 0 01-.309.173 2.562 2.562 0 01.445.183 1.57 1.57 0 01.367.262 1.141 1.141 0 01.241.372 1.194 1.194 0 01.094.492 1.393 1.393 0 01-.136.618 1.31 1.31 0 01-.4.466 1.9 1.9 0 01-.613.288 2.942 2.942 0 01-.8.1h-2.378v-5.373h2.279a2.575 2.575 0 01.723.094zm.073 2.038a.828.828 0 00.346-.723.786.786 0 00-.3-.65 1.42 1.42 0 00-.88-.2h-1.638v1.854h1.568a1.461 1.461 0 00.9-.283zm.296 2.438a.833.833 0 00.351-.718.786.786 0 00-.361-.691 1.891 1.891 0 00-1.048-.241h-1.71v1.9h1.8a1.634 1.634 0 00.985-.236z" fill="#231f20"/><path data-name="Path 3" d="M34.733 153.515a2.489 2.489 0 01-.587.854 2.713 2.713 0 01-.906.566 3.054 3.054 0 01-1.158.209h-1.864v-5.374h1.865a3.142 3.142 0 011.158.2 2.714 2.714 0 01.906.566 2.52 2.52 0 01.587.838 2.8 2.8 0 010 2.127zm-.581-1.886A1.97 1.97 0 0033 150.498a2.451 2.451 0 00-.922-.168H30.82v4.253h1.257a2.451 2.451 0 00.922-.162 1.906 1.906 0 00.7-.451 1.952 1.952 0 00.445-.67 2.184 2.184 0 00.157-.833 2.232 2.232 0 00-.149-.838z" fill="#231f20"/><path data-name="Path 4" d="M50.685 149.754h.5l1.477 4.489 1.535-4.473h.634l-1.922 5.411h-.524l-1.472-4.358-1.482 4.358h-.524l-1.922-5.411h.681l1.571 4.473z" fill="#231f20"/><path data-name="Path 5" d="M64.197 150.33h-3.279v1.833h2.933v.55h-2.933v1.88h3.316v.555H60.31v-5.378h3.887z" fill="#231f20"/><path data-name="Path 6" d="M69.812 149.77h.608v4.814h3.028v.56h-3.636z" fill="#231f20"/><path data-name="Path 7" d="M78.936 149.77h.6v4.814h3.028v.56h-3.628z" fill="#231f20"/><path data-name="Path 8" d="M92.005 149.77h.592v5.37h-.482l-3.469-4.4v4.4h-.592v-5.37h.566l3.384 4.306z" fill="#231f20"/><path data-name="Path 9" d="M102.502 150.33h-3.279v1.833h2.918v.55h-2.933v1.88h3.316v.555H98.6v-5.378h3.887z" fill="#231f20"/><path data-name="Path 10" d="M108.746 151.451a.7.7 0 00.22.283 1.666 1.666 0 00.445.231 5.051 5.051 0 00.728.194 3.179 3.179 0 011.325.555 1.2 1.2 0 01.43.979 1.456 1.456 0 01-.136.629 1.482 1.482 0 01-.377.482 1.737 1.737 0 01-.576.309 2.4 2.4 0 01-.739.11 3.272 3.272 0 01-1.179-.21 3.387 3.387 0 01-1.016-.644l.377-.445a3.057 3.057 0 00.849.571 2.456 2.456 0 00.99.189 1.4 1.4 0 00.875-.251.817.817 0 00.325-.67.859.859 0 00-.063-.34.664.664 0 00-.215-.278 1.71 1.71 0 00-.43-.22 5.25 5.25 0 00-.7-.194 5.085 5.085 0 01-.8-.23 1.812 1.812 0 01-.566-.314 1.183 1.183 0 01-.33-.43 1.447 1.447 0 01-.11-.587 1.4 1.4 0 01.131-.592 1.314 1.314 0 01.372-.461 1.727 1.727 0 01.555-.309 2.2 2.2 0 01.707-.115 2.92 2.92 0 011.048.168 2.961 2.961 0 01.859.487l-.356.466a2.616 2.616 0 00-.754-.445 2.378 2.378 0 00-.8-.136 1.486 1.486 0 00-.471.068 1.3 1.3 0 00-.361.183.9.9 0 00-.23.278.8.8 0 00-.079.346.885.885 0 00.052.343z" fill="#231f20"/><path data-name="Path 11" d="M118.096 151.451a.665.665 0 00.225.283 1.571 1.571 0 00.445.23 4.886 4.886 0 00.728.194 3.248 3.248 0 011.325.555 1.2 1.2 0 01.424.979 1.456 1.456 0 01-.136.629 1.357 1.357 0 01-.377.482 1.639 1.639 0 01-.576.309 2.368 2.368 0 01-.739.11 3.274 3.274 0 01-1.179-.209 3.454 3.454 0 01-1.016-.644l.377-.445a3.143 3.143 0 00.854.571 2.42 2.42 0 00.99.188 1.392 1.392 0 00.87-.251.806.806 0 00.325-.67.963.963 0 00-.058-.34.68.68 0 00-.22-.278 1.573 1.573 0 00-.409-.194 5.445 5.445 0 00-.7-.194 5.009 5.009 0 01-.807-.23 1.943 1.943 0 01-.566-.314 1.183 1.183 0 01-.33-.43 1.57 1.57 0 01-.1-.587 1.325 1.325 0 01.131-.592 1.3 1.3 0 01.367-.461 1.757 1.757 0 01.56-.309 2.175 2.175 0 01.707-.115 2.855 2.855 0 011.886.655l-.351.466a2.716 2.716 0 00-.754-.445 2.4 2.4 0 00-.8-.136 1.489 1.489 0 00-.471.068 1.3 1.3 0 00-.361.183.828.828 0 00-.23.278.8.8 0 00-.084.346.885.885 0 00.05.318z" fill="#231f20"/><path data-name="Path 12" d="M104.786 138.372l-2.2 5.154H98.16l9.627-22.041h3.829l9.627 22.041h-4.552l-2.169-5.154-1.6-3.86-3.279-7.6-3.253 7.6-1.6 3.86z" fill="#231f20" fill-rule="evenodd"/><path data-name="Path 13" d="M75.312 131.971l9.774-10.335h5.353l-9.151 9.47 9.46 12.419h-5.221l-7.181-9.465-3.033 3.117v6.348h-4.286v-21.888h4.285v10.335z" fill="#231f20" fill-rule="evenodd"/><path data-name="Path 14" d="M37.19 132.642v-.058a11.213 11.213 0 0111.461-11.314 11.09 11.09 0 0111.377 11.251v.063a11.208 11.208 0 01-11.461 11.309 11.09 11.09 0 01-11.377-11.251zm18.391 0v-.058a7.053 7.053 0 00-6.991-7.334 6.973 6.973 0 00-6.956 7.27v.063a7.053 7.053 0 006.987 7.333 6.948 6.948 0 006.93-7.265z" fill="#231f20" fill-rule="evenodd"/><path data-name="Path 15" d="M16.599 125.654H9.826v-4.017h17.867v4.017H20.92v17.873h-4.321v-17.873z" fill="#231f20" fill-rule="evenodd"/><path data-name="Path 16" d="M56.193 78.847l-2.54.388c-5.39.817-11.125 4.678-15.337 10.335-4.316 5.762-5.149 16.143-5.18 16.578l-.336 4.369 4.07-1.7c.419-.178 10.413-4.4 14.7-10.151s6.17-12.173 5.133-17.317zm-8.952 16.61c-1.729 2.32-5.081 4.557-7.988 6.186.634-3.043 1.708-6.6 3.389-8.852a22.759 22.759 0 018.9-7.359 21.162 21.162 0 01-4.301 10.025z" fill="#231f20"/><path data-name="Path 17" d="M30.38 54.548c6.369 4.714 13.739 7.4 20.224 7.4a21.656 21.656 0 003.017-.21l2.546-.372-.246-2.556c-.649-6.809-5.542-14.19-13.095-19.752s-21.937-7.139-22.544-7.2l-4.385-.43 1.571 4.107c.231.523 5.279 13.372 12.912 19.013zm9.276-11.152c5.149 3.8 8.9 8.627 10.324 13.142-5.2-.178-11.136-2.462-16.384-6.333-3.881-2.865-7.118-8.381-9.077-12.252 4.515.845 11.162 2.511 15.137 5.444z" fill="#231f20"/><path data-name="Path 18" d="M92.758 89.57c-4.217-5.652-9.952-9.512-15.337-10.329l-2.546-.388-.524 2.519c-1.048 5.144.88 11.618 5.133 17.317s14.279 9.952 14.7 10.151l4.065 1.7-.335-4.395c-.011-.432-.838-10.813-5.156-16.575zm-8.952 5.887a21.062 21.062 0 01-4.285-10.025 22.869 22.869 0 018.9 7.359c1.671 2.242 2.745 5.8 3.384 8.847-2.901-1.625-6.247-3.86-7.997-6.181z" fill="#231f20"/><path data-name="Path 19" d="M24.011 82.535c7.2-1.451 13.86-4.808 18.26-9.2a21.7 21.7 0 001.922-2.179l1.5-1.954-1.729-1.4c-4.609-3.724-12.445-4.924-20.952-3.206C14.4 66.329 3.719 75.149 3.268 75.521L0 78.219l3.6 1.435c.475.189 11.763 4.62 20.411 2.881zm-.524-13.095c5.819-1.173 11.319-.765 15.054 1.048a31.379 31.379 0 01-15 7.249c-4.389.885-9.952-.278-13.661-1.33 3.572-2.582 9.1-6.081 13.6-6.982z" fill="#231f20"/><path data-name="Path 20" d="M127.479 79.654l3.593-1.435-3.248-2.7c-.45-.372-11.141-9.193-19.742-10.926s-16.363-.524-20.952 3.206l-1.749 1.4 1.5 1.954a21.626 21.626 0 001.917 2.179c4.405 4.4 11.057 7.757 18.265 9.208 8.644 1.734 19.937-2.697 20.416-2.886zm-6.286-3.284c-3.709 1.048-9.271 2.216-13.661 1.33a31.262 31.262 0 01-15-7.249c3.729-1.791 9.229-2.2 15.054-1.048 4.51.922 10.041 4.421 13.624 6.967z" fill="#231f20"/><path data-name="Path 21" d="M80.979 65.601H50.091v5.4H62.84v33.413h5.4V70.996h12.744z" fill="#231f20"/><path data-name="Path 22" d="M74.903 61.363l2.546.372a21.6 21.6 0 003.017.21c6.479 0 13.849-2.7 20.224-7.4 7.647-5.641 12.692-18.49 12.906-19.035l1.571-4.107-4.384.445c-.608.063-14.97 1.571-22.581 7.2S75.778 51.997 75.103 58.807zm16.526-17.966c3.976-2.933 10.617-4.6 15.133-5.442-1.954 3.892-5.2 9.386-9.077 12.252-5.238 3.871-11.178 6.155-16.384 6.333 1.419-4.515 5.165-9.345 10.319-13.142z" fill="#231f20"/><path data-name="Path 23" d="M65.537 61.473l2.038-2.347c5.081-5.856 8.114-16.123 8.114-27.463 0-11.492-7.427-26.289-7.747-26.913L65.537 0l-2.409 4.751c-.314.623-7.742 15.421-7.742 26.913 0 11.34 3.033 21.607 8.114 27.463zm0-48.9c2.1 5.076 4.751 12.817 4.751 19.092 0 8.2-1.77 15.882-4.751 21.025-2.98-5.144-4.777-12.823-4.777-21.025 0-6.265 2.698-14.013 4.777-19.094z" fill="#231f20"/></svg>