<svg xmlns="http://www.w3.org/2000/svg" width="80.797" height="96.722"><g data-name="Group 891"><g data-name="Group 888" fill="#fff"><g data-name="Group 886" fill-rule="evenodd"><path data-name="Path 5777" d="M64.593 85.295l-1.354 3.177h-2.731l5.935-13.586h2.36l5.935 13.586h-2.807l-1.335-3.177-.988-2.38-2.023-4.681-2.006 4.681-.988 2.38z"/><path data-name="Path 5778" d="M46.426 81.353l6.025-6.369h3.3l-5.644 5.838 5.832 7.655h-3.218l-4.427-5.835-1.869 1.92v3.915h-2.644V74.984h2.644v6.369z"/><path data-name="Path 5779" d="M22.909 81.765v-.038a7.048 7.048 0 0114.094-.037v.037a7.048 7.048 0 01-14.094.038zm11.338 0v-.038a4.345 4.345 0 00-4.31-4.516 4.282 4.282 0 00-4.272 4.479v.037a4.345 4.345 0 004.31 4.517 4.282 4.282 0 004.272-4.479z"/><path data-name="Path 5780" d="M10.233 77.453H6.06v-2.474h11.01v2.474h-4.174v11.018h-2.662V77.453z"/></g><g data-name="Group 887"><path data-name="Path 5781" d="M5.586 94.515a2.136 2.136 0 012.187-2.206 1.93 1.93 0 011.695.9l-.544.288a1.353 1.353 0 00-1.151-.621 1.641 1.641 0 000 3.274 1.353 1.353 0 001.151-.62l.544.288a1.938 1.938 0 01-1.695.9 2.136 2.136 0 01-2.187-2.203z"/><path data-name="Path 5782" d="M12.279 92.379h2a1.082 1.082 0 011.2 1.087.964.964 0 01-.742.979 1.054 1.054 0 01.825 1.049 1.115 1.115 0 01-1.234 1.151h-2.052zm1.88 1.81a.625.625 0 100-1.247h-1.24v1.247zm.032 1.893a.641.641 0 00.716-.671.651.651 0 00-.716-.659h-1.277v1.33z"/><path data-name="Path 5783" d="M18.531 92.379h1.522a2.134 2.134 0 110 4.266h-1.522zm1.522 3.7a1.57 1.57 0 000-3.14h-.883v3.14z"/><path data-name="Path 5784" d="M31.414 93.351l-.882 3.293h-.684l-1.221-4.266h.716l.883 3.422.933-3.422h.518l.927 3.422.883-3.422h.716l-1.215 4.266h-.684z"/><path data-name="Path 5785" d="M36.917 92.379h2.865v.563h-2.225v1.247h2.181v.563h-2.181v1.33h2.225v.563h-2.865z"/><path data-name="Path 5786" d="M42.753 92.379h.64v3.7h1.938v.563h-2.577z"/><path data-name="Path 5787" d="M48.207 92.379h.64v3.7h1.938v.563h-2.577z"/><path data-name="Path 5788" d="M54.299 93.368v3.274h-.639v-4.266h.659l2.321 3.2v-3.2h.64v4.266h-.62z"/><path data-name="Path 5789" d="M60.398 92.379h2.865v.563h-2.226v1.247h2.181v.563h-2.181v1.33h2.226v.563h-2.865z"/><path data-name="Path 5790" d="M66.336 95.552a1.8 1.8 0 001.343.6c.691 0 .933-.352.933-.659 0-.448-.486-.575-1.029-.716-.684-.179-1.477-.377-1.477-1.247 0-.7.62-1.215 1.509-1.215a2.092 2.092 0 011.554.595l-.371.473a1.663 1.663 0 00-1.235-.5c-.473 0-.8.243-.8.6 0 .384.46.505.991.64.7.185 1.509.4 1.509 1.311 0 .665-.46 1.285-1.611 1.285a2.184 2.184 0 01-1.682-.678z"/><path data-name="Path 5791" d="M72.282 95.552a1.8 1.8 0 001.343.6c.691 0 .934-.352.934-.659 0-.448-.486-.575-1.029-.716-.684-.179-1.477-.377-1.477-1.247 0-.7.62-1.215 1.509-1.215a2.091 2.091 0 011.554.595l-.371.473a1.663 1.663 0 00-1.235-.5c-.473 0-.8.243-.8.6 0 .384.46.505.991.64.7.185 1.509.4 1.509 1.311 0 .665-.46 1.285-1.611 1.285a2.183 2.183 0 01-1.682-.678z"/></g></g><path data-name="Path 5792" d="M34.64 48.605l-1.566.237c-3.322.5-6.857 2.884-9.455 6.368-2.66 3.567-3.171 9.949-3.192 10.219l-.205 2.709 2.506-1.049c.261-.109 6.42-2.715 9.063-6.259 2.621-3.514 3.8-7.5 3.163-10.674zm-5.517 10.238a16.617 16.617 0 01-4.926 3.812 14.79 14.79 0 012.089-5.456 14.058 14.058 0 015.478-4.538 12.974 12.974 0 01-2.641 6.182z" fill="#fff"/><path data-name="Path 5793" d="M18.736 33.624a21.859 21.859 0 0012.467 4.56 13.016 13.016 0 001.861-.13l1.567-.227-.151-1.577c-.4-4.2-3.414-8.748-8.061-12.176-4.691-3.461-13.544-4.4-13.919-4.439l-2.7-.276.983 2.533c.127.335 3.234 8.255 7.953 11.732zm5.709-6.873a17.329 17.329 0 016.365 8.1 18.805 18.805 0 01-10.1-3.9c-2.392-1.765-4.39-5.151-5.594-7.55 2.782.516 6.878 1.542 9.329 3.35z" fill="#fff"/><path data-name="Path 5794" d="M57.184 55.211c-2.6-3.484-6.133-5.865-9.455-6.368l-1.566-.237-.313 1.553c-.64 3.169.543 7.16 3.163 10.674 2.643 3.543 8.8 6.149 9.063 6.258l2.506 1.049-.206-2.709c-.025-.271-.536-6.654-3.192-10.22zm-5.5 3.632a12.974 12.974 0 01-2.64-6.181 14.063 14.063 0 015.478 4.538 14.822 14.822 0 012.085 5.454 16.621 16.621 0 01-4.932-3.811z" fill="#fff"/><g data-name="Group 889"><path data-name="Path 5795" d="M14.8 50.877a22.465 22.465 0 0011.257-5.676 13.922 13.922 0 001.184-1.343l.925-1.2-1.068-.862c-2.84-2.3-7.672-3.035-12.925-1.977-5.3 1.068-11.892 6.505-12.169 6.736l-2 1.666 2.217.882c.29.114 7.249 2.847 12.579 1.774zm-.329-8.083c3.589-.722 6.98-.47 9.279.635a19.271 19.271 0 01-9.248 4.47c-2.7.544-6.134-.171-8.42-.821 2.208-1.572 5.618-3.726 8.389-4.284z" fill="#fff"/></g><g data-name="Group 890"><path data-name="Path 5796" d="M78.579 49.1l2.217-.882-2-1.666c-.278-.231-6.865-5.668-12.169-6.736-5.253-1.058-10.085-.319-12.925 1.977l-1.067.862.925 1.2a13.911 13.911 0 001.185 1.343 22.463 22.463 0 0011.257 5.676c5.324 1.076 12.284-1.657 12.577-1.774zm-3.865-2.023c-2.286.65-5.715 1.365-8.42.821a19.271 19.271 0 01-9.248-4.47c2.3-1.105 5.69-1.357 9.279-.635 2.77.559 6.181 2.713 8.389 4.284z" fill="#fff"/></g><path data-name="Path 5797" d="M49.919 40.439H30.878v3.327h7.857v20.6h3.327v-20.6h7.857z" fill="#fff"/><path data-name="Path 5798" d="M46.166 37.827l1.568.227a13 13 0 001.86.13 21.857 21.857 0 0012.466-4.56c4.714-3.477 7.825-11.4 7.955-11.732l.983-2.533-2.7.276c-.375.038-9.228.978-13.92 4.439-4.646 3.427-7.659 7.979-8.06 12.175zm10.186-11.076c2.451-1.808 6.547-2.833 9.329-3.354-1.2 2.4-3.2 5.785-5.595 7.55a18.8 18.8 0 01-10.1 3.9 17.326 17.326 0 016.365-8.096z" fill="#fff"/><path data-name="Path 5799" d="M40.398 37.896l1.256-1.446c3.132-3.608 5-9.936 5-16.928 0-7.085-4.579-16.2-4.774-16.589L40.396.004l-1.484 2.929c-.2.385-4.773 9.5-4.773 16.589 0 6.992 1.87 13.32 5 16.928zm0-30.143c1.282 3.128 2.93 7.9 2.93 11.769 0 5.056-1.094 9.791-2.931 12.962-1.836-3.172-2.93-7.907-2.93-12.962.001-3.865 1.649-8.642 2.932-11.773z" fill="#fff"/></g></svg>