<svg xmlns="http://www.w3.org/2000/svg" width="266.322" height="80.189"><g data-name="Group 972"><g data-name="Group 948" transform="translate(105.054 8.051)"><rect data-name="Rectangle 267" width="161.268" height="33.956" rx="5" transform="translate(0 37.998)" fill="#1a1818"/><g data-name="Group 944" fill="#1a1718" fill-rule="evenodd"><path data-name="Path 5881" d="M137.447 24.753l-3.184 7.46h-6.406l13.935-31.9h5.542l13.935 31.9h-6.585l-3.139-7.46-2.32-5.588-4.746-10.993-4.708 10.993-2.32 5.588z"/><path data-name="Path 5882" d="M94.785 15.492L108.932.534h7.748l-13.245 13.708 13.692 17.976h-7.559l-10.394-13.7-4.39 4.511v9.189h-6.2V.531h6.2v14.961z"/><path data-name="Path 5883" d="M39.606 16.459v-.083A16.229 16.229 0 0156.194 0a16.053 16.053 0 0116.467 16.285v.091a16.223 16.223 0 01-16.588 16.369 16.053 16.053 0 01-16.467-16.286zm26.619 0v-.083c0-5.785-4.193-10.614-10.114-10.614S46.045 10.5 46.045 16.285v.091c0 5.785 4.193 10.614 10.114 10.614S66.19 22.259 66.19 16.474z"/><path data-name="Path 5884" d="M9.803 6.346h-9.8V.531h25.859v5.815h-9.8v25.868H9.807V6.346z"/></g><g data-name="Group 947" fill="#fff"><g data-name="Group 945"><path data-name="Path 5885" d="M8.168 47.93a3.633 3.633 0 013.739-3.739 3.294 3.294 0 012.958 1.626l-1.084.553a2.168 2.168 0 00-1.875-1.051 2.618 2.618 0 000 5.223 2.146 2.146 0 001.875-1.05l1.084.553a3.31 3.31 0 01-2.958 1.625 3.633 3.633 0 01-3.739-3.74z"/><path data-name="Path 5886" d="M21.948 44.308h3.554a1.852 1.852 0 012.06 1.843 1.625 1.625 0 01-1.257 1.658 1.777 1.777 0 011.4 1.777 1.9 1.9 0 01-2.1 1.951h-3.652zm3.294 2.991a.941.941 0 100-1.875h-2.027v1.875zm.054 3.121a.974.974 0 001.106-1.007.993.993 0 00-1.106-1h-2.081v2z"/><path data-name="Path 5887" d="M35.035 44.308h2.688a3.618 3.618 0 110 7.229h-2.688zm2.688 6.112a2.374 2.374 0 002.483-2.492 2.343 2.343 0 00-2.483-2.5h-1.419v5z"/><path data-name="Path 5888" d="M61.758 46.205l-1.4 5.332h-1.355l-2.07-7.229h1.425l1.409 5.571 1.5-5.571h1.007l1.5 5.571 1.4-5.571h1.419l-2.059 7.229h-1.355z"/><path data-name="Path 5889" d="M73.494 44.308h4.952v1.115h-3.685v1.875h3.61v1.116h-3.61v2h3.685v1.116h-4.952z"/><path data-name="Path 5890" d="M85.812 44.308h1.268v6.115h3.186v1.116h-4.454z"/><path data-name="Path 5891" d="M97.48 44.308h1.268v6.115h3.186v1.116H97.48z"/><path data-name="Path 5892" d="M110.415 46.27v5.267h-1.268v-7.229h1.3l3.7 5.126v-5.126h1.262v7.229h-1.225z"/><path data-name="Path 5893" d="M123.014 44.308h4.952v1.115h-3.684v1.875h3.609v1.116h-3.609v2h3.684v1.116h-4.952z"/><path data-name="Path 5894" d="M135.568 49.543a3.121 3.121 0 002.288 1c1.039 0 1.452-.509 1.452-.986 0-.65-.769-.846-1.648-1.073-1.181-.293-2.568-.64-2.568-2.168 0-1.191 1.051-2.112 2.633-2.112a3.763 3.763 0 012.71 1.007l-.726.944a2.937 2.937 0 00-2.092-.823c-.747 0-1.224.356-1.224.9 0 .563.737.748 1.593.965 1.192.3 2.612.671 2.612 2.242 0 1.2-.846 2.233-2.8 2.233a3.867 3.867 0 01-2.936-1.148z"/><path data-name="Path 5895" d="M148.071 49.543a3.12 3.12 0 002.287 1c1.041 0 1.453-.509 1.453-.986 0-.65-.77-.846-1.648-1.073-1.181-.293-2.569-.64-2.569-2.168 0-1.191 1.051-2.112 2.634-2.112a3.762 3.762 0 012.709 1.007l-.726.944a2.937 2.937 0 00-2.092-.823c-.748 0-1.224.356-1.224.9 0 .563.737.748 1.593.965 1.191.3 2.612.671 2.612 2.242 0 1.2-.846 2.233-2.8 2.233a3.866 3.866 0 01-2.936-1.148z"/></g><g data-name="Group 946"><path data-name="Path 5896" d="M22.238 65.634h-1.485c-.173-.163-.4-.39-.639-.629a3.073 3.073 0 01-2.027.758 2.063 2.063 0 01-2.331-2.059 2.366 2.366 0 011.572-2.114 3.376 3.376 0 01-.51-1.582 1.8 1.8 0 011.962-1.712c.986 0 1.788.542 1.788 1.484 0 1.1-.9 1.561-1.8 2 .238.337.5.651.7.89.238.292.477.563.714.835a6.206 6.206 0 00.716-1.507l.932.423a9.24 9.24 0 01-1 1.788c.444.46.899.926 1.408 1.425zm-2.764-1.289a39.15 39.15 0 01-.888-1 15.633 15.633 0 01-.8-1.04 1.528 1.528 0 00-.812 1.3 1.208 1.208 0 001.257 1.246 1.94 1.94 0 001.244-.508zm-1.149-3.23c.683-.325 1.236-.672 1.236-1.278a.668.668 0 00-.727-.693.854.854 0 00-.867.888 2.451 2.451 0 00.358 1.082z"/><path data-name="Path 5897" d="M36.807 58.405h1.267v7.229h-1.267z"/><path data-name="Path 5898" d="M44.271 58.405h1.441l2.189 5.853 2.19-5.853h1.441l-2.839 7.229h-1.582z"/><path data-name="Path 5899" d="M67.661 59.521h-2.189v-1.116h5.646v1.116h-2.189v6.113h-1.268z"/><path data-name="Path 5900" d="M82.634 62.48h-3.76v3.154h-1.268v-7.229h1.268v2.959h3.761v-2.959h1.267v7.229h-1.268z"/><path data-name="Path 5901" d="M90.859 58.405h4.953v1.116h-3.685v1.875h3.609v1.116h-3.609v2.005h3.685v1.117h-4.953z"/><path data-name="Path 5902" d="M105.047 62.935h-1.256v2.7h-1.268v-7.229h3.175a2.195 2.195 0 012.362 2.266 2.027 2.027 0 01-1.712 2.124l1.766 2.839h-1.463zm.478-3.414h-1.734v2.3h1.734a1.152 1.152 0 100-2.3z"/><path data-name="Path 5903" d="M119.327 64.246h-3.425l-.531 1.387h-1.387l2.839-7.229h1.582l2.839 7.229h-1.384zm-3.067-1.116h2.709l-1.355-3.652z"/><path data-name="Path 5904" d="M127.45 58.405h3.175a2.267 2.267 0 110 4.53h-1.907v2.7h-1.268zm3 1.116h-1.734v2.3h1.734a1.152 1.152 0 100-2.3z"/><path data-name="Path 5905" d="M141.447 62.631l-2.807-4.226h1.452l1.994 3.1 1.973-3.1h1.453l-2.8 4.226v3h-1.268z"/></g></g></g><g data-name="Group 968"><g data-name="Group 967"><g data-name="Group 950"><path data-name="Path 5907" d="M40.761 57.201l-1.843.279c-3.91.593-8.07 3.395-11.128 7.495-3.13 4.2-3.732 11.708-3.757 12.026l-.241 3.188 2.949-1.234c.308-.129 7.555-3.195 10.666-7.365 3.084-4.135 4.476-8.832 3.723-12.561zm-6.492 12.048a19.56 19.56 0 01-5.8 4.486 17.42 17.42 0 012.457-6.42 16.543 16.543 0 016.447-5.34 15.276 15.276 0 01-3.1 7.275z" fill="#1a1818"/></g><g data-name="Group 951"><path data-name="Path 5909" d="M22.05 39.569c4.623 3.411 9.97 5.367 14.671 5.367a15.353 15.353 0 002.19-.153l1.845-.268-.178-1.856c-.471-4.939-4.018-10.3-9.486-14.329-5.52-4.073-15.94-5.179-16.38-5.224l-3.181-.325 1.157 2.981c.153.396 3.814 9.716 9.362 13.807zm6.718-8.088c3.736 2.756 6.455 6.258 7.491 9.532a22.131 22.131 0 01-11.885-4.595c-2.815-2.077-5.166-6.062-6.584-8.885 3.273.613 8.094 1.819 10.982 3.949z" fill="#1a1818"/></g><g data-name="Group 952"><path data-name="Path 5911" d="M67.291 64.975c-3.058-4.1-7.218-6.9-11.128-7.495l-1.843-.279-.368 1.827c-.753 3.729.638 8.426 3.723 12.562 3.11 4.17 10.358 7.236 10.665 7.364l2.949 1.234L71.047 77c-.024-.316-.625-7.828-3.756-12.025zm-6.478 4.275a15.27 15.27 0 01-3.107-7.275 16.554 16.554 0 016.447 5.341 17.445 17.445 0 012.454 6.418 19.558 19.558 0 01-5.794-4.484z" fill="#1a1818"/></g><g data-name="Group 958"><g data-name="Group 957"><g data-name="Group 954"><g data-name="Group 953"><path data-name="Path 5913" d="M17.417 59.875a26.436 26.436 0 0013.248-6.68 16.281 16.281 0 001.394-1.581l1.089-1.417-1.259-1.014c-3.343-2.7-9.029-3.572-15.212-2.327-6.242 1.257-13.994 7.656-14.321 7.927l-2.359 1.961 2.609 1.038c.349.138 8.539 3.356 14.811 2.093zm-.387-9.513c4.223-.85 8.214-.554 10.92.747a22.679 22.679 0 01-10.883 5.26c-3.183.641-7.219-.2-9.909-.966 2.599-1.852 6.611-4.385 9.872-5.041z" fill="#1a1818"/></g></g></g></g><g data-name="Group 964"><g data-name="Group 963"><g data-name="Group 960"><g data-name="Group 959"><path data-name="Path 5915" d="M92.477 57.783l2.609-1.038-2.359-1.961c-.327-.272-8.08-6.671-14.321-7.927-6.182-1.245-11.868-.375-15.211 2.327l-1.257 1.015 1.089 1.417a16.355 16.355 0 001.394 1.581 26.437 26.437 0 0013.248 6.68c6.274 1.261 14.462-1.957 14.808-2.094zm-4.549-2.38c-2.69.765-6.726 1.607-9.909.966a22.679 22.679 0 01-10.883-5.26c2.706-1.3 6.7-1.6 10.921-.747 3.26.656 7.272 3.189 9.871 5.04z" fill="#1a1818"/></g></g></g></g><path data-name="Path 5917" d="M35.508 46.761v5.574h9.247v24.238h5.574V52.335h9.247v-5.574z" fill="#1a1818"/><g data-name="Group 965"><path data-name="Path 5918" d="M54.33 44.516l1.846.268a15.339 15.339 0 002.189.153c4.7 0 10.049-1.956 14.671-5.367 5.548-4.092 9.208-13.412 9.362-13.807l1.156-2.981-3.18.325c-.441.045-10.861 1.151-16.381 5.224-5.467 4.034-9.014 9.39-9.486 14.328zm11.987-13.034c2.885-2.128 7.705-3.335 10.979-3.947-1.418 2.823-3.769 6.809-6.585 8.885a22.123 22.123 0 01-11.884 4.595c1.035-3.275 3.755-6.778 7.49-9.533z" fill="#1a1818"/></g><g data-name="Group 966"><path data-name="Path 5920" d="M47.543 44.594l1.478-1.7c3.685-4.246 5.886-11.693 5.886-19.922 0-8.337-5.388-19.07-5.618-19.523L47.543.002l-1.747 3.447c-.23.452-5.618 11.185-5.618 19.523 0 8.228 2.2 15.676 5.886 19.922zm0-35.474c1.509 3.681 3.449 9.3 3.449 13.85 0 5.951-1.288 11.523-3.449 15.255-2.161-3.732-3.449-9.3-3.449-15.255 0-4.544 1.941-10.166 3.449-13.851z" fill="#1a1818"/></g></g></g></g></svg>