<svg xmlns="http://www.w3.org/2000/svg" viewBox="0 0 250.23 299.56"><defs><style>.cls-2{fill:#fff}</style></defs><g id="Layer_2" data-name="Layer 2"><g id="Background"><path d="M200.05 264.17l-4.2 9.84h-8.45l18.38-42.08h7.31l18.38 42.08h-8.69l-4.14-9.84-3.06-7.37-6.26-14.5-6.21 14.5-3.06 7.37zm-56.27-12.22l18.66-19.73h10.22l-17.47 18.08 18.06 23.71h-9.97l-13.71-18.07-5.79 5.95v12.12h-8.18v-41.79h8.18v19.73zM71 253.23v-.11c0-12.29 9.62-21.6 21.88-21.6s21.72 9.19 21.72 21.48v.12c0 12.29-9.62 21.59-21.88 21.59S71 265.52 71 253.23zm35.11 0v-.11c0-7.63-5.53-14-13.34-14S79.49 245.37 79.49 253v.12c0 7.63 5.53 14 13.34 14s13.23-6.24 13.23-13.87zm-74.42-13.34H18.76v-7.67h34.11v7.67H39.94v34.12h-8.25v-34.12z" fill-rule="evenodd" fill="#fff"/><path class="cls-2" d="M107.28 150.53l-4.85.74c-10.29 1.56-21.24 8.93-29.28 19.73-8.24 11-9.83 30.82-9.89 31.65l-.64 8.35 7.77-3.25c.8-.34 19.88-8.4 28.06-19.38s11.78-23.24 9.8-33.06zm-17.09 31.71c-3.3 4.43-9.7 8.7-15.25 11.81 1.21-5.81 3.26-12.6 6.47-16.9 4.83-6.48 11-11.51 17-14.05-.63 5.95-3.52 12.9-8.22 19.14zM58 104.14c12.16 9 26.23 14.12 38.61 14.12a41.34 41.34 0 005.76-.4l4.86-.71-.47-4.88c-1.24-13-10.58-27.09-25-37.71S39.88 60.93 38.72 60.81L30.35 60l3 7.84c.44 1 10.08 25.53 24.65 36.3zm17.71-21.29c9.83 7.25 17 16.47 19.71 25.09-9.93-.34-21.26-4.7-31.28-12.09-7.41-5.47-13.59-16-17.33-23.39 8.62 1.61 21.31 4.79 28.9 10.39zM177.09 171c-8.05-10.79-19-18.16-29.28-19.72l-4.86-.74-1 4.81c-2 9.82 1.68 22.18 9.8 33.06s27.26 19 28.07 19.38l7.76 3.25-.64-8.39c-.03-.84-1.61-20.65-9.85-31.65zM160 182.24c-4.69-6.29-7.59-13.19-8.18-19.14 6 2.54 12.14 7.57 17 14.05 3.19 4.28 5.24 11.07 6.46 16.89-5.55-3.1-11.94-7.37-15.28-11.8zM45.84 157.57C59.59 154.8 72.3 148.39 80.7 140a41.42 41.42 0 003.67-4.16l2.86-3.73-3.3-2.67c-8.8-7.11-23.76-9.4-40-6.12-16.43 3.31-36.83 20.15-37.69 20.86L0 149.33l6.87 2.74c.91.36 22.46 8.82 38.97 5.5zm-1-25c11.11-2.24 21.61-1.46 28.74 2-7 6.54-17.31 11.56-28.64 13.84-8.38 1.69-19-.53-26.08-2.54 6.82-4.93 17.37-11.61 25.96-13.33zm198.53 19.5l6.86-2.74-6.2-5.16c-.86-.71-21.27-17.55-37.69-20.86s-31.24-1-40 6.12L163 132.1l2.87 3.73a41.29 41.29 0 003.66 4.16c8.41 8.4 21.11 14.81 34.87 17.58 16.5 3.32 38.06-5.14 38.97-5.5zm-12-6.27c-7.08 2-17.7 4.23-26.08 2.54-11.33-2.28-21.69-7.3-28.64-13.84 7.12-3.42 17.62-4.2 28.74-2 8.61 1.76 19.17 8.44 26.01 13.3z"/><path class="cls-2" d="M154.6 125.24H95.63v10.3h24.34v63.79h10.3v-63.79h24.33v-10.3zm-11.6-8.09l4.86.71a41.23 41.23 0 005.76.4c12.37 0 26.44-5.15 38.61-14.12 14.6-10.77 24.23-35.3 24.64-36.34l3-7.84-8.37.85c-1.16.12-28.58 3-43.11 13.75s-23.72 24.71-25 37.71zm31.55-34.3c7.59-5.6 20.27-8.78 28.89-10.39-3.73 7.43-9.92 17.92-17.33 23.39-10 7.39-21.34 11.75-31.28 12.09 2.71-8.62 9.86-17.84 19.7-25.09zm-49.43 34.51l3.89-4.48c9.7-11.18 15.49-30.78 15.49-52.43 0-21.94-14.18-50.19-14.79-51.38L125.12 0l-4.6 9.07c-.6 1.19-14.78 29.44-14.78 51.38 0 21.65 5.79 41.25 15.49 52.43zm0-93.36c4 9.69 9.07 24.47 9.07 36.45 0 15.66-3.38 30.32-9.07 40.14-5.69-9.82-9.12-24.48-9.12-40.14 0-11.96 5.15-26.75 9.12-36.45z"/></g></g></svg>