<svg xmlns="http://www.w3.org/2000/svg" width="1921.993" height="390.253" viewBox="0 0 1921.993 390.253">
    <defs>
        <style>
            .cls-1{opacity:.097}.cls-2{fill:#b2b2ae;fill-rule:evenodd}
        </style>
    </defs>
    <g id="img-toka-logo-find-your-relief-slider" class="cls-1" transform="translate(-222.871 -315.901)">
        <g id="Group_1" data-name="Group 1" transform="translate(222.871 315.901)">
            <path id="Path_58" d="M301.7 523.242l-37.95 88.912H187.4L353.477 231.93h66.051l166.077 380.224h-78.52l-37.408-88.912-27.649-66.594-56.564-131.017-56.112 131.017-27.652 66.594z" class="cls-2" data-name="Path 58" transform="translate(1336.388 -228.225)"/>
            <path id="Path_59" d="M209.513 410.5l168.606-178.28h92.345L312.61 395.586 475.8 609.823h-90.091l-123.88-163.275-52.317 53.763v109.512H135.6V232.22h73.913V410.5z" class="cls-2" data-name="Path 59" transform="translate(920.136 -225.895)"/>
            <path id="Path_60" d="M71 427.686v-.994c0-111.049 86.924-195.172 197.7-195.172s196.256 83.039 196.256 194.088v1.084c0 111.049-86.924 195.081-197.7 195.081S71 538.735 71 427.686zm317.245 0v-.994c0-68.943-49.968-126.5-120.536-126.5s-119.996 56.473-119.996 125.416v1.084c0 68.943 49.968 126.5 120.537 126.5s119.543-56.383 119.543-125.326z" class="cls-2" data-name="Path 60" transform="translate(401.027 -231.52)"/>
            <path id="Path_61" d="M135.592 301.524H18.76v-69.3h308.209v69.3H210.137v308.3h-74.545v-308.3z" class="cls-2" data-name="Path 61" transform="translate(-18.76 -225.895)"/>
        </g>
    </g>
</svg>
