<?xml version="1.0" encoding="UTF-8" standalone="no"?>
<svg
   xmlns:dc="http://purl.org/dc/elements/1.1/"
   xmlns:cc="http://creativecommons.org/ns#"
   xmlns:rdf="http://www.w3.org/1999/02/22-rdf-syntax-ns#"
   xmlns:svg="http://www.w3.org/2000/svg"
   xmlns="http://www.w3.org/2000/svg"
   xmlns:sodipodi="http://sodipodi.sourceforge.net/DTD/sodipodi-0.dtd"
   xmlns:inkscape="http://www.inkscape.org/namespaces/inkscape"
   width="29.379"
   height="34.148"
   viewBox="0 0 29.379 34.148"
   version="1.1"
   id="svg13"
   sodipodi:docname="icn-account2.svg"
   inkscape:version="0.92.3 (2405546, 2018-03-11)">
  <metadata
     id="metadata17">
    <rdf:RDF>
      <cc:Work
         rdf:about="">
        <dc:format>image/svg+xml</dc:format>
        <dc:type
           rdf:resource="http://purl.org/dc/dcmitype/StillImage" />
        <dc:title></dc:title>
      </cc:Work>
    </rdf:RDF>
  </metadata>
  <sodipodi:namedview
     pagecolor="#ffffff"
     bordercolor="#666666"
     borderopacity="1"
     objecttolerance="10"
     gridtolerance="10"
     guidetolerance="10"
     inkscape:pageopacity="0"
     inkscape:pageshadow="2"
     inkscape:window-width="2400"
     inkscape:window-height="1271"
     id="namedview15"
     showgrid="false"
     inkscape:zoom="6.9110931"
     inkscape:cx="-2.9632792"
     inkscape:cy="17.073999"
     inkscape:window-x="2391"
     inkscape:window-y="-9"
     inkscape:window-maximized="1"
     inkscape:current-layer="prefix__icn-account" />
  <defs
     id="defs4">
    <style
       id="style2">
            .prefix__cls-1{fill:none;stroke:#222;stroke-linecap:round;stroke-width:2px}
        </style>
  </defs>
  <g
     id="prefix__icn-account"
     transform="translate(16537.475 21123)">
    <g
       id="prefix__Ellipse_1016"
       class="prefix__cls-1"
       data-name="Ellipse 1016"
       transform="translate(-16532 -21123)">
      <path
         style="stroke:none"
         d="M 18,9 A 9,9 0 0 1 9,18 9,9 0 0 1 0,9 9,9 0 0 1 9,0 9,9 0 0 1 18,9 Z"
         id="circle6" />
      <path
         style="color:#000000;font-style:normal;font-variant:normal;font-weight:normal;font-stretch:normal;font-size:medium;line-height:normal;font-family:sans-serif;font-variant-ligatures:normal;font-variant-position:normal;font-variant-caps:normal;font-variant-numeric:normal;font-variant-alternates:normal;font-feature-settings:normal;text-indent:0;text-align:start;text-decoration:none;text-decoration-line:none;text-decoration-style:solid;text-decoration-color:#000000;letter-spacing:normal;word-spacing:normal;text-transform:none;writing-mode:lr-tb;direction:ltr;text-orientation:mixed;dominant-baseline:auto;baseline-shift:baseline;text-anchor:start;white-space:normal;shape-padding:0;clip-rule:nonzero;display:inline;overflow:visible;visibility:visible;opacity:1;isolation:auto;mix-blend-mode:normal;color-interpolation:sRGB;color-interpolation-filters:linearRGB;solid-color:#000000;solid-opacity:1;vector-effect:none;fill:#222222;fill-opacity:1;fill-rule:nonzero;stroke:none;stroke-width:2px;stroke-linecap:butt;stroke-linejoin:miter;stroke-miterlimit:4;stroke-dasharray:none;stroke-dashoffset:0;stroke-opacity:1;color-rendering:auto;image-rendering:auto;shape-rendering:auto;text-rendering:auto;enable-background:accumulate"
         d="M 9,0 C 4.0412819,0 0,4.0412819 0,9 c 0,4.958718 4.0412819,9 9,9 4.958718,0 9,-4.041282 9,-9 C 18,4.0412819 13.958718,0 9,0 Z m 0,2 c 3.877838,0 7,3.1221621 7,7 0,3.877838 -3.122162,7 -7,7 C 5.1221621,16 2,12.877838 2,9 2,5.1221621 5.1221621,2 9,2 Z"
         id="circle8"
         inkscape:connector-curvature="0" />
    </g>
    <path
       style="color:#000000;font-style:normal;font-variant:normal;font-weight:normal;font-stretch:normal;font-size:medium;line-height:normal;font-family:sans-serif;font-variant-ligatures:normal;font-variant-position:normal;font-variant-caps:normal;font-variant-numeric:normal;font-variant-alternates:normal;font-feature-settings:normal;text-indent:0;text-align:start;text-decoration:none;text-decoration-line:none;text-decoration-style:solid;text-decoration-color:#000000;letter-spacing:normal;word-spacing:normal;text-transform:none;writing-mode:lr-tb;direction:ltr;text-orientation:mixed;dominant-baseline:auto;baseline-shift:baseline;text-anchor:start;white-space:normal;shape-padding:0;clip-rule:nonzero;display:inline;overflow:visible;visibility:visible;opacity:1;isolation:auto;mix-blend-mode:normal;color-interpolation:sRGB;color-interpolation-filters:linearRGB;solid-color:#000000;solid-opacity:1;vector-effect:none;fill:#222222;fill-opacity:1;fill-rule:nonzero;stroke:none;stroke-width:2px;stroke-linecap:round;stroke-linejoin:miter;stroke-miterlimit:4;stroke-dasharray:none;stroke-dashoffset:0;stroke-opacity:1;color-rendering:auto;image-rendering:auto;shape-rendering:auto;text-rendering:auto;enable-background:accumulate"
       d="m -16522.274,-21103.181 c -7.189,-0.13 -11.164,3.201 -13.121,6.543 -1.958,3.341 -2.049,6.71 -2.049,6.71 a 1.000465,1.000465 0 1 0 2,0.06 c 0,0 0.1,-2.898 1.775,-5.76 1.676,-2.861 4.778,-5.673 11.36,-5.554 6.593,0.118 9.445,2.917 10.884,5.695 1.439,2.778 1.319,5.539 1.319,5.539 a 1.000201,1.000201 0 1 0 1.998,0.1 c 0,0 0.169,-3.256 -1.541,-6.557 -1.711,-3.302 -5.449,-6.646 -12.625,-6.775 z"
       id="prefix__Path_4071"
       inkscape:connector-curvature="0" />
  </g>
</svg>
