<svg xmlns="http://www.w3.org/2000/svg" width="31.621" height="31.621" viewBox="0 0 31.621 31.621">
    <g id="prefix__icn-location-pin" transform="translate(-831 -14)">
        <path id="prefix__Rectangle_5" d="M0 0H31.621V31.621H0z" data-name="Rectangle 5" transform="translate(831 14)" style="fill:none"/>
        <path id="prefix__icn-location-pin-2" d="M107 1957.2a7.216 7.216 0 00-7.2 7.216 7.051 7.051 0 00.63 2.945 45.491 45.491 0 006.266 9.3.4.4 0 00.607 0 45.517 45.517 0 006.267-9.3 7.047 7.047 0 00.63-2.945 7.217 7.217 0 00-7.2-7.216zm0 10.964a3.748 3.748 0 113.74-3.748 3.748 3.748 0 01-3.74 3.747z" data-name="icn-location-pin" transform="translate(739.621 -1936.689)" style="fill:#333"/>
    </g>
</svg>
