<svg xmlns="http://www.w3.org/2000/svg" width="31.621" height="31.621" viewBox="0 0 31.621 31.621">
    <g id="prefix__icn-call" transform="translate(-831 -14)">
        <path id="prefix__Rectangle_5" d="M0 0H31.621V31.621H0z" data-name="Rectangle 5" transform="translate(831 14)" style="fill:none"/>
        <g id="prefix__calendar-with-a-clock-time-tools_2_" data-name="calendar-with-a-clock-time-tools (2)" transform="translate(838.709 19.701)">
            <path id="prefix__Path_570" d="M2.489 3.109V.622a.622.622 0 111.244 0v2.487a.622.622 0 01-1.244 0zm10.572.622a.622.622 0 00.622-.622V.622a.622.622 0 00-1.244 0v2.487a.622.622 0 00.622.622zM19.9 14.925a4.975 4.975 0 11-4.974-4.975 4.975 4.975 0 014.974 4.975zm-1.244 0a3.731 3.731 0 10-3.731 3.731 3.736 3.736 0 003.733-3.731zM4.976 7.463H2.489V9.95h2.487zm-2.487 6.219h2.487v-2.488H2.489zM6.22 9.95h2.487V7.463H6.22zm0 3.731h2.487v-2.487H6.22zM1.245 14.8V6.219h13.681v2.487h1.244V3.855a1.357 1.357 0 00-1.347-1.368H14.3v.623a1.244 1.244 0 11-2.487 0v-.622H4.354v.622a1.244 1.244 0 11-2.487 0v-.622h-.518A1.358 1.358 0 000 3.855V14.8a1.359 1.359 0 001.348 1.368h7.359v-1.243H1.349a.118.118 0 01-.104-.125zm11.194-4.85V7.463H9.951V9.95zm4.353 4.975h-1.866v-1.866a.622.622 0 00-1.244 0v2.488a.621.621 0 00.622.622h2.488a.622.622 0 000-1.244z" data-name="Path 570"/>
        </g>
    </g>
</svg>
