<svg xmlns="http://www.w3.org/2000/svg" width="129" height="20.027" viewBox="0 0 129 20.027">
    <path id="prefix__icn-5-strar" d="M1011.409 3480.228l-4.273-2.2a1.512 1.512 0 00-1.393 0l-4.27 2.2a1.493 1.493 0 01-2.174-1.55l.55-3.137.266-1.522a1.461 1.461 0 00-.431-1.3l-.582-.556-2.875-2.743a1.463 1.463 0 01.831-2.507l4.776-.678a1.5 1.5 0 001.127-.8l2.134-4.241a1.513 1.513 0 012.687 0l1.14 2.264 1 1.977a1.5 1.5 0 001.13.8l.165.025 4.61.653a1.462 1.462 0 01.828 2.507l-3.454 3.3a1.449 1.449 0 00-.43 1.3l.814 4.659a1.481 1.481 0 01-1.476 1.721 1.514 1.514 0 01-.7-.172zm-26.917 0l-4.273-2.2a1.513 1.513 0 00-1.393 0l-4.27 2.2a1.493 1.493 0 01-2.174-1.55l.55-3.137.266-1.522a1.461 1.461 0 00-.431-1.3l-.582-.556-2.875-2.743a1.463 1.463 0 01.831-2.507l4.776-.678a1.5 1.5 0 001.127-.8l2.135-4.241a1.513 1.513 0 012.687 0l1.14 2.264.994 1.977a1.5 1.5 0 001.131.8l.163.025 4.611.653a1.462 1.462 0 01.828 2.507l-3.454 3.3a1.448 1.448 0 00-.431 1.3l.814 4.659a1.481 1.481 0 01-1.476 1.721 1.513 1.513 0 01-.694-.172zm-26.917 0l-4.273-2.2a1.513 1.513 0 00-1.393 0l-4.27 2.2a1.493 1.493 0 01-2.174-1.55l.55-3.137.266-1.522a1.461 1.461 0 00-.431-1.3l-.582-.556-2.875-2.743a1.463 1.463 0 01.831-2.507l4.776-.678a1.5 1.5 0 001.127-.8l2.135-4.241a1.513 1.513 0 012.687 0l1.139 2.264 1 1.977a1.5 1.5 0 001.129.8l.164.025 4.611.653a1.462 1.462 0 01.828 2.507l-3.454 3.3a1.448 1.448 0 00-.43 1.3l.814 4.659a1.481 1.481 0 01-1.476 1.721 1.513 1.513 0 01-.699-.172zm-26.917 0l-4.273-2.2a1.513 1.513 0 00-1.393 0l-4.27 2.2a1.493 1.493 0 01-2.174-1.55l.55-3.137.266-1.522a1.461 1.461 0 00-.43-1.3l-.582-.556-2.875-2.743a1.463 1.463 0 01.831-2.507l4.776-.678a1.5 1.5 0 001.127-.8l2.135-4.241a1.513 1.513 0 012.687 0l1.139 2.264 1 1.977a1.5 1.5 0 001.131.8l.163.025 4.611.653a1.462 1.462 0 01.828 2.507l-3.454 3.3a1.448 1.448 0 00-.431 1.3l.814 4.659a1.481 1.481 0 01-1.477 1.721 1.513 1.513 0 01-.699-.172zm-26.917 0l-4.273-2.2a1.513 1.513 0 00-1.393 0l-4.27 2.2a1.493 1.493 0 01-2.174-1.55l.55-3.137.266-1.522a1.461 1.461 0 00-.431-1.3l-.582-.556-2.875-2.743a1.463 1.463 0 01.831-2.507l4.776-.678a1.5 1.5 0 001.127-.8l2.135-4.241a1.513 1.513 0 012.687 0l1.139 2.264 1 1.977a1.5 1.5 0 001.131.8l.163.025 4.611.653a1.462 1.462 0 01.828 2.507l-3.454 3.3a1.448 1.448 0 00-.431 1.3l.814 4.659a1.481 1.481 0 01-1.476 1.721 1.514 1.514 0 01-.699-.172z" transform="translate(-888.107 -3460.371)" style="fill:#feda00"/>
</svg>
