<svg xmlns="http://www.w3.org/2000/svg" width="88.451" height="92.807" viewBox="0 0 88.451 92.807">
    <defs>
        <style>
            .cls-1{fill:#c9c9c9}.cls-2{fill:#14c8f0}
        </style>
    </defs>
    <g id="icn-backed-by-doctors" transform="translate(-32.922 -39.014)">
        <g id="Group_696" data-name="Group 696" transform="translate(75.753 95.43)">
            <g id="Group_694" data-name="Group 694" transform="translate(10.806 5.185)">
                <path id="Path_4074" d="M56.268 92.608h-2.751v-8.5a7.549 7.549 0 0 1 2.528-10.36l.275-.171 1.546-12.173 2.732.347-1.714 13.488-1.406.858a4.8 4.8 0 0 0-1.455 6.828l.245.349z" class="cls-1" data-name="Path 4074" transform="translate(-52.42 -61.407)"/>
            </g>
            <g id="Group_695" data-name="Group 695">
                <path id="Path_4075" d="M51.243 95.908h-2.751c0-20.34 9.559-35.9 11.039-36.386l1.549.49-1.106.82.938.982c-1.205 1.372-9.669 15.592-9.669 34.094zm8.726-35.074l-1.1.814z" class="cls-1" data-name="Path 4075" transform="translate(-48.492 -59.522)"/>
            </g>
        </g>
        <g id="Group_699" data-name="Group 699" transform="translate(59.495 95.43)">
            <g id="Group_697" data-name="Group 697" transform="translate(0 5.185)">
                <path id="Path_4076" d="M49.66 92.608h-2.751v-9.334l.242-.349A4.8 4.8 0 0 0 45.7 76.1l-1.406-.858-1.712-13.488 2.729-.347 1.543 12.173.275.171A7.548 7.548 0 0 1 49.66 84.11z" class="cls-1" data-name="Path 4076" transform="translate(-42.582 -61.407)"/>
            </g>
            <g id="Group_698" data-name="Group 698" transform="translate(6.393)">
                <path id="Path_4077" d="M57.491 95.908H54.74c0-18.5-8.462-32.722-9.667-34.095l.952-.834-.008-.146-1.111-.823 1.549-.49c1.48.492 11.036 16.048 11.036 36.388z" class="cls-1" data-name="Path 4077" transform="translate(-44.906 -59.522)"/>
            </g>
        </g>
        <g id="Group_700" data-name="Group 700" transform="translate(99.199 117.437)">
            <path id="Path_4078" d="M62.242 77.975a5.227 5.227 0 1 1 5.227-5.227 5.231 5.231 0 0 1-5.227 5.227zm0-7.7a2.476 2.476 0 1 0 2.476 2.476 2.478 2.478 0 0 0-2.476-2.478z" class="cls-2" data-name="Path 4078" transform="translate(-57.015 -67.522)"/>
        </g>
        <g id="Group_701" data-name="Group 701" transform="translate(99.581 102.588)">
            <path id="Path_4079" d="M63.374 78.349h-2.751v-1.887A25.889 25.889 0 0 0 57.154 63.5l2.382-1.381a28.686 28.686 0 0 1 3.838 14.338z" class="cls-2" data-name="Path 4079" transform="translate(-57.154 -62.124)"/>
        </g>
        <g id="Group_702" data-name="Group 702" transform="translate(48.458 102.588)">
            <path id="Path_4080" d="M41.321 76.462H38.57a28.658 28.658 0 0 1 3.838-14.338l2.38 1.381a25.915 25.915 0 0 0-3.467 12.957z" class="cls-2" data-name="Path 4080" transform="translate(-38.57 -62.124)"/>
        </g>
        <g id="Group_703" data-name="Group 703" transform="translate(41.471 115.74)">
            <path id="Path_4081" d="M52.756 79.38H50v-4.112a5.612 5.612 0 1 0-11.224 0v4.112H36.03v-4.112a8.363 8.363 0 1 1 16.726 0z" class="cls-2" data-name="Path 4081" transform="translate(-36.03 -66.905)"/>
        </g>
        <g id="Group_692" data-name="Group 692" transform="translate(83.948 91.028)">
            <path id="Path_4072" d="M86.143 98.715l-.036-9.389c.044-.487.781-8.206-7.6-13.207-5.419-3.235-13.581-6.107-19.474-7.942a10.71 10.71 0 0 1-7.568-10.255h2.751a7.964 7.964 0 0 0 5.637 7.628c6.033 1.882 14.412 4.833 20.065 8.209C89.874 79.7 88.9 89.084 88.85 89.48l.044 9.224z" class="cls-1" data-name="Path 4072" transform="translate(-51.471 -57.922)"/>
        </g>
        <g id="Group_693" data-name="Group 693" transform="translate(32.922 91.028)">
            <path id="Path_4073" d="M35.716 98.71h-2.751v-9.389c-.039-.237-1.015-9.623 8.935-15.562 5.653-3.375 14.032-6.327 20.065-8.209a7.964 7.964 0 0 0 5.635-7.628h2.751a10.71 10.71 0 0 1-7.568 10.255c-5.892 1.835-14.054 4.707-19.474 7.942-8.377 5-7.639 12.72-7.6 13.048z" class="cls-1" data-name="Path 4073" transform="translate(-32.922 -57.922)"/>
        </g>
        <g id="Group_704" data-name="Group 704" transform="translate(55.113 39.014)">
            <path id="Path_4082" d="M63.709 94.926h-1.365c-11.488 0-15.479-13.023-16.406-16.863-2.965-.531-4.949-3.183-4.949-6.809v-7.636h2.22V52.785A13.788 13.788 0 0 1 56.98 39.014h21.452v2.825a12.347 12.347 0 0 1-.091 1.5 7.527 7.527 0 0 1 4.5 6.886v13.393h2.179v7.637c0 3.686-1.931 6.291-4.908 6.814-.927 3.84-4.921 16.857-16.403 16.857zM43.74 66.369v4.886c0 2.011.875 4.159 3.326 4.159h1.144l.209 1.125c.03.154 3.032 15.636 13.925 15.636h1.364c10.918 0 13.895-15.479 13.925-15.636l.206-1.125h1.147c2.421 0 3.285-2.148 3.285-4.159v-4.886h-2.178v-16.14a4.775 4.775 0 0 0-2.415-4.146 12.343 12.343 0 0 1-11.568 8.078H55.434a1.774 1.774 0 0 0-1.772 1.772v2.022h-2.75v-2.023a4.526 4.526 0 0 1 4.522-4.522H66.11a9.587 9.587 0 0 0 9.213-6.976v-1.723c.107 0 .212 0 .316.008.028-.292.041-.583.041-.88v-.074h-18.7a11.032 11.032 0 0 0-11.02 11.02v13.584z" class="cls-1" data-name="Path 4082" transform="translate(-40.989 -39.014)"/>
        </g>
    </g>
</svg>
