<svg xmlns="http://www.w3.org/2000/svg" width="80.797" height="96.722" viewBox="0 0 80.797 96.722">
  <g id="Group_891" data-name="Group 891" transform="translate(-1216.735 -932.604)">
    <g id="Group_888" data-name="Group 888" transform="translate(1222.321 1007.359)">
      <g id="Group_886" data-name="Group 886" transform="translate(0.473)">
        <path id="Path_5777" data-name="Path 5777" d="M1408.217,1174.945l-1.354,3.177h-2.731l5.935-13.586h2.36l5.935,13.586h-2.807l-1.335-3.177-.988-2.38-2.023-4.681-2.006,4.681-.988,2.38Z" transform="translate(-1349.683 -1164.405)" fill="#fff" fill-rule="evenodd"/>
        <path id="Path_5778" data-name="Path 5778" d="M1354.976,1171.2l6.025-6.369h3.3l-5.644,5.838,5.832,7.655h-3.218l-4.427-5.835-1.869,1.92v3.915h-2.644v-13.493h2.644v6.369Z" transform="translate(-1314.609 -1164.602)" fill="#fff" fill-rule="evenodd"/>
        <path id="Path_5779" data-name="Path 5779" d="M1287.685,1171.138v-.038a7.048,7.048,0,0,1,14.094-.037v.037a7.048,7.048,0,0,1-14.094.038Zm11.338,0v-.038a4.345,4.345,0,0,0-4.31-4.516,4.282,4.282,0,0,0-4.272,4.479v.037a4.345,4.345,0,0,0,4.31,4.517,4.282,4.282,0,0,0,4.272-4.479Z" transform="translate(-1270.835 -1164.128)" fill="#fff" fill-rule="evenodd"/>
        <path id="Path_5780" data-name="Path 5780" d="M1239.673,1167.3H1235.5v-2.474h11.01v2.474h-4.174v11.018h-2.662V1167.3Z" transform="translate(-1235.499 -1164.602)" fill="#fff" fill-rule="evenodd"/>
      </g>
      <g id="Group_887" data-name="Group 887" transform="translate(0 17.554)">
        <path id="Path_5781" data-name="Path 5781" d="M1234.035,1220.7a2.136,2.136,0,0,1,2.187-2.206,1.93,1.93,0,0,1,1.695.9l-.544.288a1.353,1.353,0,0,0-1.151-.621,1.641,1.641,0,0,0,0,3.274,1.353,1.353,0,0,0,1.151-.62l.544.288a1.938,1.938,0,0,1-1.695.9A2.136,2.136,0,0,1,1234.035,1220.7Z" transform="translate(-1234.035 -1218.494)" fill="#fff"/>
        <path id="Path_5782" data-name="Path 5782" d="M1254.765,1218.711h2a1.082,1.082,0,0,1,1.2,1.087.964.964,0,0,1-.742.979,1.054,1.054,0,0,1,.825,1.049,1.115,1.115,0,0,1-1.234,1.151h-2.052Zm1.88,1.81a.625.625,0,1,0,0-1.247h-1.24v1.247Zm.032,1.893a.641.641,0,0,0,.716-.671.651.651,0,0,0-.716-.659H1255.4v1.33Z" transform="translate(-1248.072 -1218.641)" fill="#fff"/>
        <path id="Path_5783" data-name="Path 5783" d="M1274.128,1218.711h1.522a2.134,2.134,0,1,1,0,4.266h-1.522Zm1.522,3.7a1.57,1.57,0,0,0,0-3.14h-.883v3.14Z" transform="translate(-1261.183 -1218.641)" fill="#fff"/>
        <path id="Path_5784" data-name="Path 5784" d="M1308.179,1219.683l-.882,3.293h-.684l-1.221-4.266h.716l.883,3.422.933-3.422h.518l.927,3.422.883-3.422h.716l-1.215,4.266h-.684Z" transform="translate(-1282.351 -1218.641)" fill="#fff"/>
        <path id="Path_5785" data-name="Path 5785" d="M1331.07,1218.711h2.865v.563h-2.225v1.247h2.181v.563h-2.181v1.33h2.225v.563h-2.865Z" transform="translate(-1299.739 -1218.641)" fill="#fff"/>
        <path id="Path_5786" data-name="Path 5786" d="M1349.146,1218.711h.64v3.7h1.938v.563h-2.577Z" transform="translate(-1311.979 -1218.641)" fill="#fff"/>
        <path id="Path_5787" data-name="Path 5787" d="M1366.035,1218.711h.64v3.7h1.938v.563h-2.577Z" transform="translate(-1323.414 -1218.641)" fill="#fff"/>
        <path id="Path_5788" data-name="Path 5788" d="M1383.563,1219.7v3.274h-.639v-4.266h.659l2.321,3.2v-3.2h.64v4.266h-.62Z" transform="translate(-1334.85 -1218.641)" fill="#fff"/>
        <path id="Path_5789" data-name="Path 5789" d="M1403.792,1218.711h2.865v.563h-2.226v1.247h2.181v.563h-2.181v1.33h2.226v.563h-2.865Z" transform="translate(-1348.98 -1218.641)" fill="#fff"/>
        <path id="Path_5790" data-name="Path 5790" d="M1421.42,1221.75a1.8,1.8,0,0,0,1.343.6c.691,0,.933-.352.933-.659,0-.448-.486-.575-1.029-.716-.684-.179-1.477-.377-1.477-1.247,0-.7.62-1.215,1.509-1.215a2.092,2.092,0,0,1,1.554.595l-.371.473a1.663,1.663,0,0,0-1.235-.5c-.473,0-.8.243-.8.6,0,.384.46.505.991.64.7.185,1.509.4,1.509,1.311,0,.665-.46,1.285-1.611,1.285a2.184,2.184,0,0,1-1.682-.678Z" transform="translate(-1360.67 -1218.507)" fill="#fff"/>
        <path id="Path_5791" data-name="Path 5791" d="M1439.834,1221.75a1.8,1.8,0,0,0,1.343.6c.691,0,.934-.352.934-.659,0-.448-.486-.575-1.029-.716-.684-.179-1.477-.377-1.477-1.247,0-.7.62-1.215,1.509-1.215a2.091,2.091,0,0,1,1.554.595l-.371.473a1.663,1.663,0,0,0-1.235-.5c-.473,0-.8.243-.8.6,0,.384.46.505.991.64.7.185,1.509.4,1.509,1.311,0,.665-.46,1.285-1.611,1.285a2.183,2.183,0,0,1-1.682-.678Z" transform="translate(-1373.138 -1218.507)" fill="#fff"/>
      </g>
    </g>
    <path id="Path_5792" data-name="Path 5792" d="M1293.779,1083.138l-1.566.237c-3.322.5-6.857,2.884-9.455,6.368-2.66,3.567-3.171,9.949-3.192,10.219l-.205,2.709,2.506-1.049c.261-.109,6.42-2.715,9.063-6.259,2.621-3.514,3.8-7.5,3.163-10.674Zm-5.517,10.238a16.617,16.617,0,0,1-4.926,3.812,14.79,14.79,0,0,1,2.089-5.456,14.058,14.058,0,0,1,5.478-4.538A12.974,12.974,0,0,1,1288.262,1093.376Z" transform="translate(-42.404 -101.929)" fill="#fff"/>
    <path id="Path_5793" data-name="Path 5793" d="M1256.019,1006.825a21.859,21.859,0,0,0,12.467,4.56h0a13.016,13.016,0,0,0,1.861-.13l1.567-.227-.151-1.577c-.4-4.2-3.414-8.748-8.061-12.176-4.691-3.461-13.544-4.4-13.919-4.439l-2.7-.276.983,2.533C1248.193,995.428,1251.3,1003.348,1256.019,1006.825Zm5.709-6.873a17.329,17.329,0,0,1,6.365,8.1,18.805,18.805,0,0,1-10.1-3.9c-2.392-1.765-4.39-5.151-5.594-7.55C1255.181,997.118,1259.277,998.144,1261.728,999.952Z" transform="translate(-20.548 -40.597)" fill="#fff"/>
    <path id="Path_5794" data-name="Path 5794" d="M1369.7,1089.744c-2.6-3.484-6.133-5.865-9.455-6.368l-1.566-.237-.313,1.553c-.64,3.169.543,7.16,3.163,10.674,2.643,3.543,8.8,6.149,9.063,6.258l2.506,1.049-.206-2.709C1372.867,1099.693,1372.356,1093.31,1369.7,1089.744Zm-5.5,3.632a12.974,12.974,0,0,1-2.64-6.181,14.063,14.063,0,0,1,5.478,4.538,14.822,14.822,0,0,1,2.085,5.454A16.621,16.621,0,0,1,1364.191,1093.376Z" transform="translate(-95.781 -101.929)" fill="#fff"/>
    <g id="Group_889" data-name="Group 889" transform="translate(1216.735 971.945)">
      <path id="Path_5795" data-name="Path 5795" d="M1231.535,1065.983a22.465,22.465,0,0,0,11.257-5.676h0a13.922,13.922,0,0,0,1.184-1.343l.925-1.2-1.068-.862c-2.84-2.3-7.672-3.035-12.925-1.977-5.3,1.068-11.892,6.505-12.169,6.736l-2,1.666,2.217.882C1219.246,1064.323,1226.205,1067.056,1231.535,1065.983Zm-.329-8.083c3.589-.722,6.98-.47,9.279.635a19.271,19.271,0,0,1-9.248,4.47c-2.7.544-6.134-.171-8.42-.821C1225.025,1060.612,1228.435,1058.458,1231.206,1057.9Z" transform="translate(-1216.735 -1054.447)" fill="#fff"/>
    </g>
    <g id="Group_890" data-name="Group 890" transform="translate(1269.365 971.945)">
      <path id="Path_5796" data-name="Path 5796" d="M1405.684,1064.206l2.217-.882-2-1.666c-.278-.231-6.865-5.668-12.169-6.736-5.253-1.058-10.085-.319-12.925,1.977l-1.067.862.925,1.2a13.911,13.911,0,0,0,1.185,1.343h0a22.463,22.463,0,0,0,11.257,5.676C1398.431,1067.056,1405.391,1064.323,1405.684,1064.206Zm-3.865-2.023c-2.286.65-5.715,1.365-8.42.821a19.271,19.271,0,0,1-9.248-4.47c2.3-1.105,5.69-1.357,9.279-.635C1396.2,1058.458,1399.611,1060.612,1401.819,1062.183Z" transform="translate(-1379.735 -1054.447)" fill="#fff"/>
    </g>
    <path id="Path_5797" data-name="Path 5797" d="M1331.407,1057.847h-19.041v3.327h7.857v20.6h3.327v-20.6h7.857Z" transform="translate(-64.753 -84.804)" fill="#fff"/>
    <path id="Path_5798" data-name="Path 5798" d="M1359.715,1011.028l1.568.227a13,13,0,0,0,1.86.13,21.857,21.857,0,0,0,12.466-4.56c4.714-3.477,7.825-11.4,7.955-11.732l.983-2.533-2.7.276c-.375.038-9.228.978-13.92,4.439-4.646,3.427-7.659,7.979-8.06,12.175Zm10.186-11.076c2.451-1.808,6.547-2.833,9.329-3.354-1.2,2.4-3.2,5.785-5.595,7.55a18.8,18.8,0,0,1-10.1,3.9A17.326,17.326,0,0,1,1369.9,999.952Z" transform="translate(-96.814 -40.597)" fill="#fff"/>
    <path id="Path_5799" data-name="Path 5799" d="M1328.73,970.5l1.256-1.446c3.132-3.608,5-9.936,5-16.928,0-7.085-4.579-16.2-4.774-16.589l-1.484-2.929-1.484,2.929c-.2.385-4.773,9.5-4.773,16.589,0,6.992,1.87,13.32,5,16.928Zm0-30.143c1.282,3.128,2.93,7.9,2.93,11.769,0,5.056-1.094,9.791-2.931,12.962-1.836-3.172-2.93-7.907-2.93-12.962C1325.8,948.261,1327.448,943.484,1328.731,940.353Z" transform="translate(-71.597 0)" fill="#fff"/>
  </g>
</svg>
