<svg id="Layer_1" data-name="Layer 1" xmlns="http://www.w3.org/2000/svg" width="131.07" height="155.233" viewBox="0 0 131.07 155.233">
  <path id="Path_1" data-name="Path 1" d="M23.17,290.757a2.887,2.887,0,0,1-.487.3,2.714,2.714,0,0,1-.56.189,2.888,2.888,0,0,1-.665.068,2.65,2.65,0,0,1-2.493-1.676,2.9,2.9,0,0,1-.2-1.089,2.855,2.855,0,0,1,.2-1.084,2.724,2.724,0,0,1,.566-.885,2.62,2.62,0,0,1,.859-.6,2.682,2.682,0,0,1,1.089-.215,3.243,3.243,0,0,1,.665.058,2.937,2.937,0,0,1,.55.173,2.415,2.415,0,0,1,.466.272,4.234,4.234,0,0,1,.414.346l-.414.445a3.363,3.363,0,0,0-.739-.524,2.058,2.058,0,0,0-.948-.2,1.981,1.981,0,0,0-.828.168,2.016,2.016,0,0,0-.66.466,2.141,2.141,0,0,0-.435.7,2.514,2.514,0,0,0,0,1.749,2.142,2.142,0,0,0,.435.7,2.047,2.047,0,0,0,.66.477,1.985,1.985,0,0,0,.828.173,2.044,2.044,0,0,0,.948-.2,3.469,3.469,0,0,0,.786-.571l.4.388a3.338,3.338,0,0,1-.435.382Z" transform="translate(-8.933 -136.079)" fill="#231f20"/>
  <path id="Path_2" data-name="Path 2" d="M41.531,286.024a1.8,1.8,0,0,1,.55.272,1.168,1.168,0,0,1,.351.419,1.242,1.242,0,0,1,.126.56,1.383,1.383,0,0,1-.073.466,1.252,1.252,0,0,1-.466.608,1.4,1.4,0,0,1-.309.173,2.562,2.562,0,0,1,.445.183,1.57,1.57,0,0,1,.367.262,1.141,1.141,0,0,1,.241.372,1.194,1.194,0,0,1,.094.492,1.393,1.393,0,0,1-.136.618,1.31,1.31,0,0,1-.4.466,1.9,1.9,0,0,1-.613.288,2.942,2.942,0,0,1-.8.1H38.53V285.93h2.279a2.575,2.575,0,0,1,.723.094Zm.073,2.038a.828.828,0,0,0,.346-.723.786.786,0,0,0-.3-.65,1.42,1.42,0,0,0-.88-.2H39.132v1.854H40.7a1.461,1.461,0,0,0,.9-.283ZM41.9,290.5a.833.833,0,0,0,.351-.718.786.786,0,0,0-.361-.691,1.891,1.891,0,0,0-1.048-.241H39.132v1.9h1.8a1.634,1.634,0,0,0,.985-.236Z" transform="translate(-18.348 -136.16)" fill="#231f20"/>
  <path id="Path_3" data-name="Path 3" d="M62.205,289.675a2.489,2.489,0,0,1-.587.854,2.713,2.713,0,0,1-.906.566,3.054,3.054,0,0,1-1.158.209H57.69V285.93h1.865a3.142,3.142,0,0,1,1.158.2,2.714,2.714,0,0,1,.906.566,2.52,2.52,0,0,1,.587.838,2.8,2.8,0,0,1,0,2.127Zm-.581-1.886a1.97,1.97,0,0,0-1.152-1.131,2.451,2.451,0,0,0-.922-.168H58.292v4.253h1.257a2.451,2.451,0,0,0,.922-.162,1.906,1.906,0,0,0,.7-.451,1.952,1.952,0,0,0,.445-.67,2.184,2.184,0,0,0,.157-.833A2.232,2.232,0,0,0,61.624,287.789Z" transform="translate(-27.472 -136.16)" fill="#231f20"/>
  <path id="Path_4" data-name="Path 4" d="M93.4,285.9h.5l1.477,4.489,1.535-4.473h.634l-1.922,5.411H95.1l-1.472-4.358-1.482,4.358h-.524L89.7,285.916h.681l1.571,4.473Z" transform="translate(-42.715 -136.146)" fill="#231f20"/>
  <path id="Path_5" data-name="Path 5" d="M119.027,286.49h-3.279v1.833h2.933v.55h-2.933v1.88h3.316v.555H115.14V285.93h3.887Z" transform="translate(-54.83 -136.16)" fill="#231f20"/>
  <path id="Path_6" data-name="Path 6" d="M133.28,285.93h.608v4.814h3.028v.56H133.28Z" transform="translate(-63.468 -136.16)" fill="#231f20"/>
  <path id="Path_7" data-name="Path 7" d="M150.7,285.93h.6v4.814h3.028v.56H150.7Z" transform="translate(-71.764 -136.16)" fill="#231f20"/>
  <path id="Path_8" data-name="Path 8" d="M172.059,285.93h.592V291.3h-.482L168.7,286.9V291.3h-.592V285.93h.566l3.384,4.306Z" transform="translate(-80.054 -136.16)" fill="#231f20"/>
  <path id="Path_9" data-name="Path 9" d="M192.142,286.49h-3.279v1.833h2.918v.55h-2.933v1.88h3.316v.555H188.24V285.93h3.887Z" transform="translate(-89.64 -136.16)" fill="#231f20"/>
  <path id="Path_10" data-name="Path 10" d="M206.815,287.539a.7.7,0,0,0,.22.283,1.666,1.666,0,0,0,.445.231,5.051,5.051,0,0,0,.728.194,3.179,3.179,0,0,1,1.325.555,1.2,1.2,0,0,1,.43.979,1.456,1.456,0,0,1-.136.629,1.482,1.482,0,0,1-.377.482,1.737,1.737,0,0,1-.576.309,2.4,2.4,0,0,1-.739.11,3.272,3.272,0,0,1-1.179-.21,3.387,3.387,0,0,1-1.016-.644l.377-.445a3.057,3.057,0,0,0,.849.571,2.456,2.456,0,0,0,.99.189,1.4,1.4,0,0,0,.875-.251.817.817,0,0,0,.325-.67.859.859,0,0,0-.063-.34.664.664,0,0,0-.215-.278,1.71,1.71,0,0,0-.43-.22,5.25,5.25,0,0,0-.7-.194,5.085,5.085,0,0,1-.8-.23,1.812,1.812,0,0,1-.566-.314,1.183,1.183,0,0,1-.33-.43,1.447,1.447,0,0,1-.11-.587,1.4,1.4,0,0,1,.131-.592,1.314,1.314,0,0,1,.372-.461,1.727,1.727,0,0,1,.555-.309,2.2,2.2,0,0,1,.707-.115,2.92,2.92,0,0,1,1.048.168,2.961,2.961,0,0,1,.859.487l-.356.466a2.616,2.616,0,0,0-.754-.445,2.378,2.378,0,0,0-.8-.136,1.486,1.486,0,0,0-.471.068,1.3,1.3,0,0,0-.361.183.9.9,0,0,0-.23.278.8.8,0,0,0-.079.346A.885.885,0,0,0,206.815,287.539Z" transform="translate(-98.069 -136.088)" fill="#231f20"/>
  <path id="Path_11" data-name="Path 11" d="M224.665,287.563a.665.665,0,0,0,.225.283,1.571,1.571,0,0,0,.445.23,4.886,4.886,0,0,0,.728.194,3.248,3.248,0,0,1,1.325.555,1.2,1.2,0,0,1,.424.979,1.456,1.456,0,0,1-.136.629,1.357,1.357,0,0,1-.377.482,1.639,1.639,0,0,1-.576.309,2.368,2.368,0,0,1-.739.11,3.274,3.274,0,0,1-1.179-.209,3.454,3.454,0,0,1-1.016-.644l.377-.445a3.143,3.143,0,0,0,.854.571,2.42,2.42,0,0,0,.99.188,1.392,1.392,0,0,0,.87-.251.806.806,0,0,0,.325-.67.963.963,0,0,0-.058-.34.68.68,0,0,0-.22-.278,1.573,1.573,0,0,0-.409-.194,5.445,5.445,0,0,0-.7-.194,5.009,5.009,0,0,1-.807-.23,1.943,1.943,0,0,1-.566-.314,1.183,1.183,0,0,1-.33-.43,1.57,1.57,0,0,1-.1-.587,1.325,1.325,0,0,1,.131-.592,1.3,1.3,0,0,1,.367-.461,1.757,1.757,0,0,1,.56-.309,2.175,2.175,0,0,1,.707-.115,2.855,2.855,0,0,1,1.886.655l-.351.466a2.716,2.716,0,0,0-.754-.445,2.4,2.4,0,0,0-.8-.136,1.489,1.489,0,0,0-.471.068,1.3,1.3,0,0,0-.361.183.828.828,0,0,0-.23.278.8.8,0,0,0-.084.346A.885.885,0,0,0,224.665,287.563Z" transform="translate(-106.569 -136.112)" fill="#231f20"/>
  <path id="Path_12" data-name="Path 12" d="M194.026,248.817l-2.2,5.154H187.4l9.627-22.041h3.829l9.627,22.041h-4.552l-2.169-5.154-1.6-3.86-3.279-7.6-3.253,7.6-1.6,3.86Z" transform="translate(-89.24 -110.445)" fill="#231f20" fill-rule="evenodd"/>
  <path id="Path_13" data-name="Path 13" d="M139.885,242.554l9.774-10.335h5.353l-9.151,9.47,9.46,12.419H150.1l-7.181-9.465-3.033,3.117v6.348H135.6V232.22h4.285v10.335Z" transform="translate(-64.573 -110.583)" fill="#231f20" fill-rule="evenodd"/>
  <path id="Path_14" data-name="Path 14" d="M71,242.892v-.058A11.213,11.213,0,0,1,82.461,231.52a11.09,11.09,0,0,1,11.377,11.251v.063a11.208,11.208,0,0,1-11.461,11.309A11.09,11.09,0,0,1,71,242.892Zm18.391,0v-.058A7.053,7.053,0,0,0,82.4,235.5a6.973,6.973,0,0,0-6.956,7.27v.063a7.053,7.053,0,0,0,6.987,7.333,6.948,6.948,0,0,0,6.93-7.265Z" transform="translate(-33.81 -110.25)" fill="#231f20" fill-rule="evenodd"/>
  <path id="Path_15" data-name="Path 15" d="M25.533,236.237H18.76V232.22H36.627v4.017H29.854V254.11H25.533V236.237Z" transform="translate(-8.934 -110.583)" fill="#231f20" fill-rule="evenodd"/>
  <path id="Path_16" data-name="Path 16" d="M86.013,150.53l-2.54.388c-5.39.817-11.125,4.678-15.337,10.335-4.316,5.762-5.149,16.143-5.18,16.578L62.62,182.2l4.07-1.7c.419-.178,10.413-4.4,14.7-10.151s6.17-12.173,5.133-17.317Zm-8.952,16.61c-1.729,2.32-5.081,4.557-7.988,6.186.634-3.043,1.708-6.6,3.389-8.852a22.759,22.759,0,0,1,8.9-7.359A21.162,21.162,0,0,1,77.061,167.14Z" transform="translate(-29.82 -71.683)" fill="#231f20"/>
  <path id="Path_17" data-name="Path 17" d="M44.833,83.12c6.369,4.714,13.739,7.4,20.224,7.4h0a21.656,21.656,0,0,0,3.017-.21l2.546-.372-.246-2.556c-.649-6.809-5.542-14.19-13.095-19.752s-21.937-7.139-22.544-7.2L30.35,60l1.571,4.107C32.152,64.63,37.2,77.479,44.833,83.12Zm9.276-11.152c5.149,3.8,8.9,8.627,10.324,13.142-5.2-.178-11.136-2.462-16.384-6.333-3.881-2.865-7.118-8.381-9.077-12.252C43.487,67.37,50.134,69.036,54.109,71.969Z" transform="translate(-14.453 -28.572)" fill="#231f20"/>
  <path id="Path_18" data-name="Path 18" d="M160.1,161.257c-4.217-5.652-9.952-9.512-15.337-10.329l-2.546-.388-.524,2.519c-1.048,5.144.88,11.618,5.133,17.317s14.279,9.952,14.7,10.151l4.065,1.7-.335-4.395C165.245,177.4,164.418,167.019,160.1,161.257Zm-8.952,5.887a21.062,21.062,0,0,1-4.285-10.025,22.869,22.869,0,0,1,8.9,7.359c1.671,2.242,2.745,5.8,3.384,8.847C156.246,171.7,152.9,169.465,151.15,167.144Z" transform="translate(-67.342 -71.687)" fill="#231f20"/>
  <path id="Path_19" data-name="Path 19" d="M24.011,140.561c7.2-1.451,13.86-4.808,18.26-9.2h0a21.7,21.7,0,0,0,1.922-2.179l1.5-1.954-1.729-1.4c-4.609-3.724-12.445-4.924-20.952-3.206C14.4,124.355,3.719,133.175,3.268,133.547L0,136.245l3.6,1.435C4.075,137.869,15.363,142.3,24.011,140.561Zm-.524-13.095c5.819-1.173,11.319-.765,15.054,1.048a31.379,31.379,0,0,1-15,7.249c-4.389.885-9.952-.278-13.661-1.33,3.572-2.582,9.1-6.081,13.6-6.982Z" transform="translate(0 -58.026)" fill="#231f20"/>
  <path id="Path_20" data-name="Path 20" d="M205.1,137.668l3.593-1.435-3.248-2.7c-.45-.372-11.141-9.193-19.742-10.926s-16.363-.524-20.952,3.206l-1.749,1.4,1.5,1.954a21.626,21.626,0,0,0,1.917,2.179h0c4.405,4.4,11.057,7.757,18.265,9.208C193.328,142.288,204.621,137.857,205.1,137.668Zm-6.286-3.284c-3.709,1.048-9.271,2.216-13.661,1.33a31.262,31.262,0,0,1-15-7.249c3.729-1.791,9.229-2.2,15.054-1.048,4.51.922,10.041,4.421,13.624,6.967Z" transform="translate(-77.621 -58.014)" fill="#231f20"/>
  <path id="Path_21" data-name="Path 21" d="M126.518,125.24H95.63v5.4h12.749v33.413h5.4V130.635h12.744Z" transform="translate(-45.539 -59.639)" fill="#231f20"/>
  <path id="Path_22" data-name="Path 22" d="M143,89.916l2.546.372a21.6,21.6,0,0,0,3.017.21c6.479,0,13.849-2.7,20.224-7.4,7.647-5.641,12.692-18.49,12.906-19.035l1.571-4.107-4.384.445c-.608.063-14.97,1.571-22.581,7.2S143.875,80.55,143.2,87.36ZM159.526,71.95c3.976-2.933,10.617-4.6,15.133-5.442-1.954,3.892-5.2,9.386-9.077,12.252-5.238,3.871-11.178,6.155-16.384,6.333,1.419-4.515,5.165-9.345,10.319-13.142Z" transform="translate(-68.097 -28.553)" fill="#231f20"/>
  <path id="Path_23" data-name="Path 23" d="M115.891,61.473l2.038-2.347c5.081-5.856,8.114-16.123,8.114-27.463,0-11.492-7.427-26.289-7.747-26.913L115.891,0l-2.409,4.751c-.314.623-7.742,15.421-7.742,26.913,0,11.34,3.033,21.607,8.114,27.463Zm0-48.9c2.1,5.076,4.751,12.817,4.751,19.092,0,8.2-1.77,15.882-4.751,21.025-2.98-5.144-4.777-12.823-4.777-21.025C111.114,25.4,113.812,17.652,115.891,12.571Z" transform="translate(-50.354)" fill="#231f20"/>
</svg>
