<svg xmlns="http://www.w3.org/2000/svg" width="266.322" height="80.189" viewBox="0 0 266.322 80.189">
  <g id="Group_972" data-name="Group 972" transform="translate(-155.803 -394.626)">
    <g id="Group_948" data-name="Group 948" transform="translate(260.857 402.677)">
      <rect id="Rectangle_267" data-name="Rectangle 267" width="161.268" height="33.956" rx="5" transform="translate(0 37.998)" fill="#1a1818"/>
      <g id="Group_944" data-name="Group 944" transform="translate(0)">
        <path id="Path_5881" data-name="Path 5881" d="M611.063,439.364l-3.184,7.46h-6.406l13.935-31.9h5.542l13.935,31.9H628.3l-3.139-7.46-2.32-5.588-4.746-10.993-4.708,10.993-2.32,5.588Z" transform="translate(-473.616 -414.611)" fill="#1a1718" fill-rule="evenodd"/>
        <path id="Path_5882" data-name="Path 5882" d="M533.084,430.3l14.147-14.958h7.748l-13.245,13.708,13.692,17.976h-7.559l-10.394-13.7-4.39,4.511v9.189h-6.2V415.339h6.2V430.3Z" transform="translate(-438.299 -414.808)" fill="#1a1718" fill-rule="evenodd"/>
        <path id="Path_5883" data-name="Path 5883" d="M433.861,430.79v-.083a16.229,16.229,0,0,1,16.588-16.376,16.053,16.053,0,0,1,16.467,16.285v.091a16.223,16.223,0,0,1-16.588,16.369A16.053,16.053,0,0,1,433.861,430.79Zm26.619,0v-.083c0-5.785-4.193-10.614-10.114-10.614S440.3,424.831,440.3,430.616v.091c0,5.785,4.193,10.614,10.114,10.614s10.031-4.731,10.031-10.516Z" transform="translate(-394.255 -414.331)" fill="#1a1718" fill-rule="evenodd"/>
        <path id="Path_5884" data-name="Path 5884" d="M368.441,421.154h-9.8v-5.815H384.5v5.815h-9.8v25.868h-6.255V421.154Z" transform="translate(-358.638 -414.808)" fill="#1a1718" fill-rule="evenodd"/>
      </g>
      <g id="Group_947" data-name="Group 947" transform="translate(8.168 44.189)">
        <g id="Group_945" data-name="Group 945">
          <path id="Path_5885" data-name="Path 5885" d="M374.151,502a3.633,3.633,0,0,1,3.739-3.739,3.294,3.294,0,0,1,2.958,1.626l-1.084.553a2.168,2.168,0,0,0-1.875-1.051,2.618,2.618,0,0,0,0,5.223,2.146,2.146,0,0,0,1.875-1.05l1.084.553a3.31,3.31,0,0,1-2.958,1.625A3.633,3.633,0,0,1,374.151,502Z" transform="translate(-374.151 -498.259)" fill="#fff"/>
          <path id="Path_5886" data-name="Path 5886" d="M400.323,498.485h3.554a1.852,1.852,0,0,1,2.06,1.843,1.625,1.625,0,0,1-1.257,1.658,1.777,1.777,0,0,1,1.4,1.777,1.9,1.9,0,0,1-2.1,1.951h-3.652Zm3.294,2.991a.941.941,0,1,0,0-1.875H401.59v1.875Zm.054,3.121a.974.974,0,0,0,1.106-1.007.993.993,0,0,0-1.106-1H401.59v2Z" transform="translate(-386.543 -498.366)" fill="#fff"/>
          <path id="Path_5887" data-name="Path 5887" d="M425.178,498.485h2.688a3.618,3.618,0,1,1,0,7.229h-2.688Zm2.688,6.112a2.374,2.374,0,0,0,2.483-2.492,2.343,2.343,0,0,0-2.483-2.5h-1.419v5Z" transform="translate(-398.311 -498.366)" fill="#fff"/>
          <path id="Path_5888" data-name="Path 5888" d="M471.6,500.382l-1.4,5.332h-1.355l-2.07-7.229H468.2l1.409,5.571,1.5-5.571h1.007l1.5,5.571,1.4-5.571h1.419l-2.059,7.229h-1.355Z" transform="translate(-418.01 -498.366)" fill="#fff"/>
          <path id="Path_5889" data-name="Path 5889" d="M498.223,498.485h4.952V499.6H499.49v1.875H503.1v1.116H499.49v2h3.685v1.116h-4.952Z" transform="translate(-432.897 -498.366)" fill="#fff"/>
          <path id="Path_5890" data-name="Path 5890" d="M521.619,498.485h1.268V504.6h3.186v1.116h-4.454Z" transform="translate(-443.975 -498.366)" fill="#fff"/>
          <path id="Path_5891" data-name="Path 5891" d="M543.779,498.485h1.268V504.6h3.186v1.116h-4.454Z" transform="translate(-454.467 -498.366)" fill="#fff"/>
          <path id="Path_5892" data-name="Path 5892" d="M567.206,500.447v5.267h-1.268v-7.229h1.3l3.7,5.126v-5.126H572.2v7.229h-1.225Z" transform="translate(-464.959 -498.366)" fill="#fff"/>
          <path id="Path_5893" data-name="Path 5893" d="M592.276,498.485h4.952V499.6h-3.684v1.875h3.609v1.116h-3.609v2h3.684v1.116h-4.952Z" transform="translate(-477.43 -498.366)" fill="#fff"/>
          <path id="Path_5894" data-name="Path 5894" d="M615.488,503.623a3.121,3.121,0,0,0,2.288,1c1.039,0,1.452-.509,1.452-.986,0-.65-.769-.846-1.648-1.073-1.181-.293-2.568-.64-2.568-2.168,0-1.191,1.051-2.112,2.633-2.112a3.763,3.763,0,0,1,2.71,1.007l-.726.944a2.937,2.937,0,0,0-2.092-.823c-.747,0-1.224.356-1.224.9,0,.563.737.748,1.593.965,1.192.3,2.612.671,2.612,2.242,0,1.2-.846,2.233-2.8,2.233a3.867,3.867,0,0,1-2.936-1.148Z" transform="translate(-488.088 -498.269)" fill="#fff"/>
          <path id="Path_5895" data-name="Path 5895" d="M639.233,503.623a3.12,3.12,0,0,0,2.287,1c1.041,0,1.453-.509,1.453-.986,0-.65-.77-.846-1.648-1.073-1.181-.293-2.569-.64-2.569-2.168,0-1.191,1.051-2.112,2.634-2.112a3.762,3.762,0,0,1,2.709,1.007l-.726.944a2.937,2.937,0,0,0-2.092-.823c-.748,0-1.224.356-1.224.9,0,.563.737.748,1.593.965,1.191.3,2.612.671,2.612,2.242,0,1.2-.846,2.233-2.8,2.233a3.866,3.866,0,0,1-2.936-1.148Z" transform="translate(-499.33 -498.269)" fill="#fff"/>
        </g>
        <g id="Group_946" data-name="Group 946" transform="translate(7.589 14.108)">
          <path id="Path_5896" data-name="Path 5896" d="M395.045,532.391H393.56c-.173-.163-.4-.39-.639-.629a3.073,3.073,0,0,1-2.027.758,2.063,2.063,0,0,1-2.331-2.059,2.366,2.366,0,0,1,1.572-2.114,3.376,3.376,0,0,1-.51-1.582,1.8,1.8,0,0,1,1.962-1.712c.986,0,1.788.542,1.788,1.484,0,1.1-.9,1.561-1.8,2,.238.337.5.651.7.89.238.292.477.563.714.835a6.206,6.206,0,0,0,.716-1.507l.932.423a9.24,9.24,0,0,1-1,1.788C394.081,531.426,394.536,531.892,395.045,532.391Zm-2.764-1.289c-.358-.391-.693-.77-.888-1-.261-.314-.543-.671-.8-1.04a1.528,1.528,0,0,0-.812,1.3,1.208,1.208,0,0,0,1.257,1.246A1.94,1.94,0,0,0,392.282,531.1Zm-1.149-3.23c.683-.325,1.236-.672,1.236-1.278a.668.668,0,0,0-.727-.693.854.854,0,0,0-.867.888A2.451,2.451,0,0,0,391.132,527.871Z" transform="translate(-388.564 -525.054)" fill="#fff"/>
          <path id="Path_5897" data-name="Path 5897" d="M428.544,525.259h1.267v7.229h-1.267Z" transform="translate(-407.494 -525.151)" fill="#fff"/>
          <path id="Path_5898" data-name="Path 5898" d="M442.72,525.259h1.441l2.189,5.853,2.19-5.853h1.441l-2.839,7.229H445.56Z" transform="translate(-414.206 -525.151)" fill="#fff"/>
          <path id="Path_5899" data-name="Path 5899" d="M485.175,526.375h-2.189v-1.116h5.646v1.116h-2.189v6.113h-1.268Z" transform="translate(-433.271 -525.151)" fill="#fff"/>
          <path id="Path_5900" data-name="Path 5900" d="M511.06,529.334H507.3v3.154h-1.268v-7.229H507.3v2.959h3.761v-2.959h1.267v7.229H511.06Z" transform="translate(-444.183 -525.151)" fill="#fff"/>
          <path id="Path_5901" data-name="Path 5901" d="M531.2,525.259h4.953v1.116h-3.685v1.875h3.609v1.116h-3.609v2.005h3.685v1.117H531.2Z" transform="translate(-456.098 -525.151)" fill="#fff"/>
          <path id="Path_5902" data-name="Path 5902" d="M555.88,529.789h-1.256v2.7h-1.268v-7.229h3.175a2.195,2.195,0,0,1,2.362,2.266,2.027,2.027,0,0,1-1.712,2.124l1.766,2.839h-1.463Zm.478-3.414h-1.734v2.3h1.734a1.152,1.152,0,1,0,0-2.3Z" transform="translate(-466.59 -525.151)" fill="#fff"/>
          <path id="Path_5903" data-name="Path 5903" d="M580.467,531.1h-3.425l-.531,1.387h-1.387l2.839-7.229h1.582l2.839,7.229H581Zm-3.067-1.116h2.709l-1.355-3.652Z" transform="translate(-476.897 -525.151)" fill="#fff"/>
          <path id="Path_5904" data-name="Path 5904" d="M600.7,525.259h3.175a2.267,2.267,0,1,1,0,4.53h-1.907v2.7H600.7Zm3,1.116h-1.734v2.3H603.7a1.152,1.152,0,1,0,0-2.3Z" transform="translate(-489.007 -525.151)" fill="#fff"/>
          <path id="Path_5905" data-name="Path 5905" d="M624.761,529.485l-2.807-4.226h1.452l1.994,3.1,1.973-3.1h1.453l-2.8,4.226v3h-1.268Z" transform="translate(-499.071 -525.151)" fill="#fff"/>
        </g>
      </g>
    </g>
    <g id="Group_968" data-name="Group 968" transform="translate(152.125 389.718)">
      <g id="Group_967" data-name="Group 967" transform="translate(3.678 4.908)">
        <g id="Group_950" data-name="Group 950" transform="translate(23.797 57.201)">
          <path id="Path_5907" data-name="Path 5907" d="M219.1,502.459l-1.843.279c-3.91.593-8.07,3.395-11.128,7.495-3.13,4.2-3.732,11.708-3.757,12.026l-.241,3.188,2.949-1.234c.308-.129,7.555-3.195,10.666-7.365,3.084-4.135,4.476-8.832,3.723-12.561Zm-6.492,12.048a19.56,19.56,0,0,1-5.8,4.486,17.42,17.42,0,0,1,2.457-6.42,16.543,16.543,0,0,1,6.447-5.34A15.276,15.276,0,0,1,212.612,514.508Z" transform="translate(-202.136 -502.459)" fill="#1a1818"/>
        </g>
        <g id="Group_951" data-name="Group 951" transform="translate(11.531 22.782)">
          <path id="Path_5909" data-name="Path 5909" d="M190.478,457.017c4.623,3.411,9.97,5.367,14.671,5.367h0a15.353,15.353,0,0,0,2.19-.153l1.845-.268-.178-1.856c-.471-4.939-4.018-10.3-9.486-14.329-5.52-4.073-15.94-5.179-16.38-5.224l-3.181-.325,1.157,2.981C181.269,443.606,184.93,452.926,190.478,457.017Zm6.718-8.088c3.736,2.756,6.455,6.258,7.491,9.532a22.131,22.131,0,0,1-11.885-4.595c-2.815-2.077-5.166-6.062-6.584-8.885C189.491,445.594,194.312,446.8,197.2,448.93Z" transform="translate(-179.959 -440.23)" fill="#1a1818"/>
        </g>
        <g id="Group_952" data-name="Group 952" transform="translate(53.751 57.201)">
          <path id="Path_5911" data-name="Path 5911" d="M269.834,510.233c-3.058-4.1-7.218-6.9-11.128-7.495l-1.843-.279-.368,1.827c-.753,3.729.638,8.426,3.723,12.562,3.11,4.17,10.358,7.236,10.665,7.364l2.949,1.234-.242-3.188C273.566,521.942,272.965,514.43,269.834,510.233Zm-6.478,4.275a15.27,15.27,0,0,1-3.107-7.275,16.554,16.554,0,0,1,6.447,5.341,17.445,17.445,0,0,1,2.454,6.418A19.558,19.558,0,0,1,263.356,514.508Z" transform="translate(-256.294 -502.459)" fill="#1a1818"/>
        </g>
        <g id="Group_958" data-name="Group 958" transform="translate(0 46.299)">
          <g id="Group_957" data-name="Group 957" transform="translate(0 0)">
            <g id="Group_954" data-name="Group 954">
              <g id="Group_953" data-name="Group 953">
                <path id="Path_5913" data-name="Path 5913" d="M176.528,496.324a26.436,26.436,0,0,0,13.248-6.68h0a16.281,16.281,0,0,0,1.394-1.581l1.089-1.417L191,485.632c-3.343-2.7-9.029-3.572-15.212-2.327-6.242,1.257-13.994,7.656-14.321,7.927l-2.359,1.961,2.609,1.038C162.066,494.369,170.256,497.587,176.528,496.324Zm-.387-9.513c4.223-.85,8.214-.554,10.92.747a22.679,22.679,0,0,1-10.883,5.26c-3.183.641-7.219-.2-9.909-.966C168.868,490,172.88,487.467,176.141,486.811Z" transform="translate(-159.111 -482.748)" fill="#1a1818"/>
              </g>
            </g>
          </g>
        </g>
        <g id="Group_964" data-name="Group 964" transform="translate(61.938 46.299)">
          <g id="Group_963" data-name="Group 963" transform="translate(0 0)">
            <g id="Group_960" data-name="Group 960">
              <g id="Group_959" data-name="Group 959">
                <path id="Path_5915" data-name="Path 5915" d="M301.634,494.232l2.609-1.038-2.359-1.961c-.327-.272-8.08-6.671-14.321-7.927-6.182-1.245-11.868-.375-15.211,2.327l-1.257,1.015,1.089,1.417a16.355,16.355,0,0,0,1.394,1.581h0a26.437,26.437,0,0,0,13.248,6.68C293.1,497.587,301.288,494.369,301.634,494.232Zm-4.549-2.38c-2.69.765-6.726,1.607-9.909.966a22.679,22.679,0,0,1-10.883-5.26c2.706-1.3,6.7-1.6,10.921-.747C290.474,487.467,294.486,490,297.085,491.851Z" transform="translate(-271.095 -482.748)" fill="#1a1818"/>
              </g>
            </g>
          </g>
        </g>
        <path id="Path_5917" data-name="Path 5917" d="M223.311,483.583v5.574h9.247v24.238h5.574V489.157h9.247v-5.574Z" transform="translate(-187.803 -436.822)" fill="#1a1818"/>
        <g id="Group_965" data-name="Group 965" transform="translate(54.33 22.782)">
          <path id="Path_5918" data-name="Path 5918" d="M257.341,461.964l1.846.268a15.339,15.339,0,0,0,2.189.153c4.7,0,10.049-1.956,14.671-5.367,5.548-4.092,9.208-13.412,9.362-13.807l1.156-2.981-3.18.325c-.441.045-10.861,1.151-16.381,5.224-5.467,4.034-9.014,9.39-9.486,14.328Zm11.987-13.034c2.885-2.128,7.705-3.335,10.979-3.947-1.418,2.823-3.769,6.809-6.585,8.885a22.123,22.123,0,0,1-11.884,4.595C262.873,455.188,265.593,451.685,269.328,448.93Z" transform="translate(-257.341 -440.23)" fill="#1a1818"/>
        </g>
        <g id="Group_966" data-name="Group 966" transform="translate(40.179)">
          <path id="Path_5920" data-name="Path 5920" d="M239.119,443.633l1.478-1.7c3.685-4.246,5.886-11.693,5.886-19.922,0-8.337-5.388-19.07-5.618-19.523l-1.746-3.447-1.747,3.447c-.23.452-5.618,11.185-5.618,19.523,0,8.228,2.2,15.676,5.886,19.922Zm0-35.474c1.509,3.681,3.449,9.3,3.449,13.85,0,5.951-1.288,11.523-3.449,15.255-2.161-3.732-3.449-9.3-3.449-15.255C235.67,417.465,237.611,411.843,239.119,408.158Z" transform="translate(-231.755 -399.039)" fill="#1a1818"/>
        </g>
      </g>
    </g>
  </g>
</svg>
