<svg xmlns="http://www.w3.org/2000/svg" width="109" height="109" viewBox="0 0 109 109">
    <defs>
        <style>
            .cls-1{fill:#222}.cls-2,.cls-3{fill:#fff}.cls-3{fill-rule:evenodd}
        </style>
    </defs>
    <g id="logo-toka-box-black" transform="translate(-905.5 -46)">
        <path id="Rectangle_2" d="M0 0h109v109H0z" class="cls-1" data-name="Rectangle 2" transform="translate(905.5 46)"/>
        <path id="Path_4035" d="M21.509 288.874a1.8 1.8 0 0 1-.3.186 1.693 1.693 0 0 1-.349.117 1.794 1.794 0 0 1-.415.042 1.651 1.651 0 0 1-1.554-1.045 1.808 1.808 0 0 1-.127-.679 1.779 1.779 0 0 1 .127-.676 1.7 1.7 0 0 1 .353-.552 1.632 1.632 0 0 1 .535-.375 1.671 1.671 0 0 1 .679-.134 2.023 2.023 0 0 1 .415.036 1.825 1.825 0 0 1 .343.108 1.509 1.509 0 0 1 .291.17 2.658 2.658 0 0 1 .258.216l-.258.277a2.1 2.1 0 0 0-.46-.326 1.283 1.283 0 0 0-.591-.127 1.235 1.235 0 0 0-.516.1 1.258 1.258 0 0 0-.411.291 1.336 1.336 0 0 0-.271.438 1.567 1.567 0 0 0 0 1.091 1.336 1.336 0 0 0 .271.437 1.276 1.276 0 0 0 .411.3 1.238 1.238 0 0 0 .516.108 1.274 1.274 0 0 0 .591-.127 2.161 2.161 0 0 0 .49-.356l.248.242a2.087 2.087 0 0 1-.271.238z" class="cls-2" data-name="Path 4035" transform="translate(906.517 -141.955)"/>
        <path id="Path_4036" d="M40.4 285.988a1.123 1.123 0 0 1 .343.17.728.728 0 0 1 .219.261.774.774 0 0 1 .078.349.861.861 0 0 1-.046.291.781.781 0 0 1-.291.379.874.874 0 0 1-.193.108 1.606 1.606 0 0 1 .278.114.979.979 0 0 1 .229.163.71.71 0 0 1 .15.232.744.744 0 0 1 .059.307.869.869 0 0 1-.085.385.816.816 0 0 1-.248.291 1.183 1.183 0 0 1-.382.18 1.835 1.835 0 0 1-.5.062H38.53v-3.35h1.42a1.6 1.6 0 0 1 .45.058zm.046 1.27a.516.516 0 0 0 .215-.451.49.49 0 0 0-.189-.4.884.884 0 0 0-.548-.124h-1.019v1.156h.979a.911.911 0 0 0 .562-.176zm.183 1.518a.519.519 0 0 0 .219-.447.49.49 0 0 0-.225-.431 1.179 1.179 0 0 0-.653-.15h-1.065v1.185h1.123a1.019 1.019 0 0 0 .614-.147z" class="cls-2" data-name="Path 4036" transform="translate(893.201 -142.07)"/>
        <path id="Path_4037" d="M60.5 288.264a1.551 1.551 0 0 1-.366.532 1.691 1.691 0 0 1-.565.353 1.9 1.9 0 0 1-.722.131H57.69v-3.35h1.162a1.956 1.956 0 0 1 .722.127 1.689 1.689 0 0 1 .565.353 1.571 1.571 0 0 1 .366.522 1.747 1.747 0 0 1 0 1.326zm-.362-1.175a1.228 1.228 0 0 0-.718-.705 1.527 1.527 0 0 0-.575-.1h-.784v2.651h.784a1.527 1.527 0 0 0 .575-.1 1.188 1.188 0 0 0 .438-.281 1.217 1.217 0 0 0 .278-.418 1.361 1.361 0 0 0 .1-.519 1.391 1.391 0 0 0-.094-.528z" class="cls-2" data-name="Path 4037" transform="translate(880.297 -142.07)"/>
        <path id="Path_4038" d="M92 285.9h.31l.921 2.8.957-2.788h.4l-1.2 3.373h-.326l-.917-2.716-.924 2.716h-.326L89.7 285.91h.424l.976 2.79z" class="cls-2" data-name="Path 4038" transform="translate(858.738 -142.05)"/>
        <path id="Path_4039" d="M117.563 286.279h-2.044v1.143h1.828v.343h-1.828v1.172h2.067v.346h-2.446v-3.353h2.423z" class="cls-2" data-name="Path 4039" transform="translate(841.603 -142.07)"/>
        <path id="Path_4040" d="M133.28 285.93h.379v3h1.887v.349h-2.266z" class="cls-2" data-name="Path 4040" transform="translate(829.386 -142.07)"/>
        <path id="Path_4041" d="M150.7 285.93h.375v3h1.887v.349H150.7z" class="cls-2" data-name="Path 4041" transform="translate(817.653 -142.07)"/>
        <path id="Path_4042" d="M170.572 285.93h.369v3.35h-.3l-2.161-2.746v2.746h-.369v-3.35h.353l2.109 2.684z" class="cls-2" data-name="Path 4042" transform="translate(805.927 -142.07)"/>
        <path id="Path_4043" d="M190.672 286.279h-2.044v1.143h1.819v.343h-1.828v1.172h2.067v.346h-2.446v-3.353h2.423z" class="cls-2" data-name="Path 4043" transform="translate(792.369 -142.07)"/>
        <path id="Path_4044" d="M206.485 286.876a.435.435 0 0 0 .137.176 1.039 1.039 0 0 0 .278.144 3.154 3.154 0 0 0 .454.121 1.981 1.981 0 0 1 .826.346.751.751 0 0 1 .268.61.907.907 0 0 1-.085.392.925.925 0 0 1-.235.3 1.085 1.085 0 0 1-.359.193 1.5 1.5 0 0 1-.46.069 2.041 2.041 0 0 1-.735-.131 2.113 2.113 0 0 1-.633-.4l.235-.278a1.905 1.905 0 0 0 .529.356 1.53 1.53 0 0 0 .617.118.872.872 0 0 0 .545-.157.509.509 0 0 0 .2-.418.535.535 0 0 0-.039-.212.414.414 0 0 0-.134-.173 1.068 1.068 0 0 0-.268-.137 3.272 3.272 0 0 0-.434-.121 3.176 3.176 0 0 1-.5-.144 1.13 1.13 0 0 1-.353-.2.739.739 0 0 1-.206-.268.9.9 0 0 1-.069-.366.871.871 0 0 1 .082-.369.82.82 0 0 1 .232-.287 1.078 1.078 0 0 1 .346-.193 1.374 1.374 0 0 1 .441-.072 1.819 1.819 0 0 1 .653.1 1.844 1.844 0 0 1 .535.3l-.222.291a1.633 1.633 0 0 0-.47-.277 1.48 1.48 0 0 0-.5-.085.924.924 0 0 0-.294.042.809.809 0 0 0-.225.114.558.558 0 0 0-.144.173.5.5 0 0 0-.049.215.552.552 0 0 0 .036.228z" class="cls-2" data-name="Path 4044" transform="translate(780.448 -141.968)"/>
        <path id="Path_4045" d="M224.335 286.91a.415.415 0 0 0 .14.176.983.983 0 0 0 .277.144 3.039 3.039 0 0 0 .454.121 2.025 2.025 0 0 1 .826.346.751.751 0 0 1 .264.611.908.908 0 0 1-.085.392.846.846 0 0 1-.235.3 1.022 1.022 0 0 1-.359.193 1.475 1.475 0 0 1-.46.068 2.038 2.038 0 0 1-.735-.131 2.15 2.15 0 0 1-.633-.4l.235-.278a1.961 1.961 0 0 0 .532.356 1.508 1.508 0 0 0 .617.117.868.868 0 0 0 .542-.157.5.5 0 0 0 .2-.418.6.6 0 0 0-.036-.212.424.424 0 0 0-.137-.173.979.979 0 0 0-.255-.121 3.387 3.387 0 0 0-.434-.121 3.124 3.124 0 0 1-.5-.144 1.211 1.211 0 0 1-.353-.2.738.738 0 0 1-.206-.268.98.98 0 0 1-.065-.366.826.826 0 0 1 .082-.369.814.814 0 0 1 .229-.287 1.1 1.1 0 0 1 .349-.193 1.358 1.358 0 0 1 .441-.072 1.779 1.779 0 0 1 1.175.408l-.219.291a1.691 1.691 0 0 0-.47-.278 1.5 1.5 0 0 0-.5-.085.93.93 0 0 0-.294.043.808.808 0 0 0-.225.114.516.516 0 0 0-.144.173.5.5 0 0 0-.052.216.551.551 0 0 0 .034.204z" class="cls-2" data-name="Path 4045" transform="translate(768.426 -142.002)"/>
        <path id="Path_4046" d="M191.53 242.456l-1.371 3.213H187.4l6-13.739h2.387l6 13.739h-2.837l-1.352-3.213-1-2.406-2.044-4.734-2.027 4.734-1 2.406z" class="cls-3" data-name="Path 4046" transform="translate(792.935 -105.7)"/>
        <path id="Path_4047" d="M138.271 238.662l6.092-6.442h3.337l-5.7 5.9 5.9 7.741h-3.255l-4.476-5.9-1.89 1.943v3.957H135.6V232.22h2.671v6.442z" class="cls-3" data-name="Path 4047" transform="translate(827.823 -105.896)"/>
        <path id="Path_4048" d="M71 238.608v-.036a6.989 6.989 0 0 1 7.143-7.052 6.913 6.913 0 0 1 7.091 7.013v.039a6.986 6.986 0 0 1-7.143 7.049A6.913 6.913 0 0 1 71 238.608zm11.463 0v-.036A4.4 4.4 0 0 0 78.108 234a4.347 4.347 0 0 0-4.336 4.532v.039a4.4 4.4 0 0 0 4.355 4.571 4.331 4.331 0 0 0 4.319-4.528z" class="cls-3" data-name="Path 4048" transform="translate(871.332 -105.424)"/>
        <path id="Path_4049" d="M22.981 234.724H18.76v-2.5H29.9v2.5h-4.225v11.14h-2.694v-11.14z" class="cls-3" data-name="Path 4049" transform="translate(906.517 -105.896)"/>
        <path id="Path_4050" d="M77.2 150.53l-1.583.242c-3.36.509-6.935 2.915-9.559 6.442-2.69 3.591-3.209 10.062-3.229 10.333l-.209 2.726 2.537-1.061c.261-.111 6.491-2.742 9.161-6.327s3.846-7.588 3.2-10.794zm-5.58 10.353a16.846 16.846 0 0 1-4.979 3.856 14.937 14.937 0 0 1 2.112-5.518 14.186 14.186 0 0 1 5.55-4.587 13.19 13.19 0 0 1-2.682 6.249z" class="cls-2" data-name="Path 4050" transform="translate(876.976 -50.876)"/>
        <path id="Path_4051" d="M39.377 74.411a22.033 22.033 0 0 0 12.606 4.61 13.5 13.5 0 0 0 1.881-.131l1.587-.232-.151-1.593c-.4-4.244-3.454-8.844-8.162-12.312S33.461 60.3 33.083 60.264L30.35 60l.979 2.56c.144.326 3.291 8.335 8.048 11.851zm5.782-6.951a17.483 17.483 0 0 1 6.435 8.192A19.043 19.043 0 0 1 41.382 71.7c-2.419-1.786-4.437-5.224-5.658-7.636 2.814.53 6.957 1.568 9.435 3.396z" class="cls-2" data-name="Path 4051" transform="translate(898.711 10.097)"/>
        <path id="Path_4052" d="M153.062 157.22c-2.628-3.523-6.2-5.929-9.559-6.438l-1.587-.242-.327 1.57c-.653 3.206.549 7.241 3.2 10.794s8.9 6.2 9.164 6.327l2.534 1.061-.209-2.739c-.01-.274-.526-6.742-3.216-10.333zm-5.58 3.67a13.128 13.128 0 0 1-2.671-6.249 14.255 14.255 0 0 1 5.55 4.587 15.022 15.022 0 0 1 2.109 5.514 17 17 0 0 1-4.987-3.852z" class="cls-2" data-name="Path 4052" transform="translate(823.907 -50.883)"/>
        <path id="Path_4053" d="M14.966 133.513a22.746 22.746 0 0 0 11.381-5.736 13.52 13.52 0 0 0 1.2-1.358l.934-1.218-1.077-.872c-2.873-2.321-7.757-3.069-13.059-2-5.364 1.081-12.024 6.579-12.305 6.81L0 130.823l2.243.895c.297.117 7.333 2.882 12.723 1.795zm-.326-8.162c3.627-.731 7.055-.477 9.383.653a19.558 19.558 0 0 1-9.351 4.519c-2.736.552-6.2-.173-8.515-.829 2.227-1.61 5.671-3.791 8.476-4.352z" class="cls-2" data-name="Path 4053" transform="translate(919.152 -31.561)"/>
        <path id="Path_4054" d="M189.24 131.7l2.24-.895-2.024-1.685c-.281-.232-6.944-5.73-12.305-6.81s-10.2-.326-13.059 2l-1.09.872.937 1.218a13.484 13.484 0 0 0 1.195 1.358 22.734 22.734 0 0 0 11.385 5.74c5.381 1.082 12.423-1.68 12.721-1.798zm-3.918-2.047c-2.312.653-5.779 1.381-8.515.829a19.485 19.485 0 0 1-9.351-4.519c2.325-1.117 5.753-1.371 9.383-.653 2.811.575 6.259 2.756 8.492 4.342z" class="cls-2" data-name="Path 4054" transform="translate(809.369 -31.544)"/>
        <path id="Path_4055" d="M114.883 125.24H95.63v3.36h7.947v20.826h3.363V128.6h7.943z" class="cls-2" data-name="Path 4055" transform="translate(854.744 -33.843)"/>
        <path id="Path_4056" d="M143 78.632l1.587.232a13.464 13.464 0 0 0 1.881.131 22.119 22.119 0 0 0 12.606-4.61c4.767-3.516 7.911-11.525 8.045-11.864l.979-2.56-2.733.278c-.379.039-9.331.979-14.075 4.489s-7.744 8.067-8.162 12.312zm10.3-11.2c2.478-1.828 6.618-2.867 9.432-3.392-1.218 2.426-3.239 5.851-5.658 7.636a19.014 19.014 0 0 1-10.212 3.947 17.454 17.454 0 0 1 6.432-8.191z" class="cls-2" data-name="Path 4056" transform="translate(822.839 10.124)"/>
        <path id="Path_4057" d="M112.067 38.316l1.27-1.463c3.167-3.65 5.057-10.049 5.057-17.118 0-7.163-4.63-16.386-4.829-16.775L112.067 0l-1.5 2.961c-.2.389-4.825 9.612-4.825 16.775 0 7.068 1.89 13.467 5.057 17.118zm0-30.481c1.306 3.164 2.961 7.989 2.961 11.9 0 5.113-1.1 9.9-2.961 13.105-1.858-3.206-2.978-7.992-2.978-13.105.001-3.904 1.682-8.735 2.978-11.899z" class="cls-2" data-name="Path 4057" transform="translate(847.934 50.508)"/>
    </g>
</svg>
