<svg xmlns="http://www.w3.org/2000/svg" viewBox="0 0 250.23 299.56">
    <defs>
        <style>
        .cls-1,
        .cls-2 {
            fill: #fff;
        }

        .cls-1 {
            fill-rule: evenodd;
        }
        </style>
    </defs>
    <g id="Layer_2" data-name="Layer 2">
        <g id="Background">
            <polygon class="cls-1" points="200.05 264.17 195.85 274.01 187.4 274.01 205.78 231.93 213.09 231.93 231.47 274.01 222.78 274.01 218.64 264.17 215.58 256.8 209.32 242.3 203.11 256.8 200.05 264.17 200.05 264.17" />
            <polygon class="cls-1" points="143.78 251.95 162.44 232.22 172.66 232.22 155.19 250.3 173.25 274.01 163.28 274.01 149.57 255.94 143.78 261.89 143.78 274.01 135.6 274.01 135.6 232.22 143.78 232.22 143.78 251.95 143.78 251.95" />
            <path class="cls-1" d="M71,253.23v-.11c0-12.29,9.62-21.6,21.88-21.6S114.6,240.71,114.6,253v.12c0,12.29-9.62,21.59-21.88,21.59S71,265.52,71,253.23Zm35.11,0v-.11c0-7.63-5.53-14-13.34-14S79.49,245.37,79.49,253v.12c0,7.63,5.53,14,13.34,14s13.23-6.24,13.23-13.87Z" />
            <polygon class="cls-1" points="31.69 239.89 18.76 239.89 18.76 232.22 52.87 232.22 52.87 239.89 39.94 239.89 39.94 274.01 31.69 274.01 31.69 239.89 31.69 239.89" />
            <path class="cls-2" d="M107.28,150.53l-4.85.74C92.14,152.83,81.19,160.2,73.15,171c-8.24,11-9.83,30.82-9.89,31.65L62.62,211l7.77-3.25c.8-.34,19.88-8.4,28.06-19.38s11.78-23.24,9.8-33.06ZM90.19,182.24c-3.3,4.43-9.7,8.7-15.25,11.81,1.21-5.81,3.26-12.6,6.47-16.9,4.83-6.48,11-11.51,17-14.05C97.78,169.05,94.89,176,90.19,182.24Z" />
            <path class="cls-2" d="M58,104.14c12.16,9,26.23,14.12,38.61,14.12h0a41.34,41.34,0,0,0,5.76-.4l4.86-.71-.47-4.88c-1.24-13-10.58-27.09-25-37.71S39.88,60.93,38.72,60.81L30.35,60l3,7.84C33.79,68.84,43.43,93.37,58,104.14ZM75.71,82.85c9.83,7.25,17,16.47,19.71,25.09-9.93-.34-21.26-4.7-31.28-12.09-7.41-5.47-13.59-16-17.33-23.39C55.43,74.07,68.12,77.25,75.71,82.85Z" />
            <path class="cls-2" d="M177.09,171c-8.05-10.79-19-18.16-29.28-19.72l-4.86-.74-1,4.81c-2,9.82,1.68,22.18,9.8,33.06s27.26,19,28.07,19.38l7.76,3.25-.64-8.39C186.91,201.81,185.33,182,177.09,171ZM160,182.24c-4.69-6.29-7.59-13.19-8.18-19.14,6,2.54,12.14,7.57,17,14.05,3.19,4.28,5.24,11.07,6.46,16.89C169.73,190.94,163.34,186.67,160,182.24Z" />
            <path class="cls-2" d="M45.84,157.57C59.59,154.8,72.3,148.39,80.7,140h0a41.42,41.42,0,0,0,3.67-4.16l2.86-3.73-3.3-2.67c-8.8-7.11-23.76-9.4-40-6.12-16.43,3.31-36.83,20.15-37.69,20.86L0,149.33l6.87,2.74C7.78,152.43,29.33,160.89,45.84,157.57Zm-1-25c11.11-2.24,21.61-1.46,28.74,2-7,6.54-17.31,11.56-28.64,13.84-8.38,1.69-19-.53-26.08-2.54C25.68,140.94,36.23,134.26,44.82,132.54Z" />
            <path class="cls-2" d="M243.37,152.07l6.86-2.74-6.2-5.16c-.86-.71-21.27-17.55-37.69-20.86s-31.24-1-40,6.12L163,132.1l2.87,3.73a41.29,41.29,0,0,0,3.66,4.16h0c8.41,8.4,21.11,14.81,34.87,17.58C220.9,160.89,242.46,152.43,243.37,152.07Zm-12-6.27c-7.08,2-17.7,4.23-26.08,2.54-11.33-2.28-21.69-7.3-28.64-13.84,7.12-3.42,17.62-4.2,28.74-2C214,134.26,224.56,140.94,231.4,145.8Z" />
            <polygon class="cls-2" points="154.6 125.24 130.27 125.24 119.97 125.24 95.63 125.24 95.63 135.54 119.97 135.54 119.97 199.33 130.27 199.33 130.27 135.54 154.6 135.54 154.6 125.24" />
            <path class="cls-2" d="M143,117.15l4.86.71a41.23,41.23,0,0,0,5.76.4c12.37,0,26.44-5.15,38.61-14.12,14.6-10.77,24.23-35.3,24.64-36.34l3-7.84-8.37.85c-1.16.12-28.58,3-43.11,13.75s-23.72,24.71-25,37.71Zm31.55-34.3c7.59-5.6,20.27-8.78,28.89-10.39-3.73,7.43-9.92,17.92-17.33,23.39-10,7.39-21.34,11.75-31.28,12.09C157.54,99.32,164.69,90.1,174.53,82.85Z" />
            <path class="cls-2" d="M125.12,117.36l3.89-4.48c9.7-11.18,15.49-30.78,15.49-52.43,0-21.94-14.18-50.19-14.79-51.38L125.12,0l-4.6,9.07c-.6,1.19-14.78,29.44-14.78,51.38,0,21.65,5.79,41.25,15.49,52.43Zm0-93.36c4,9.69,9.07,24.47,9.07,36.45,0,15.66-3.38,30.32-9.07,40.14C119.43,90.77,116,76.11,116,60.45,116,48.49,121.15,33.7,125.12,24Z" />
        </g>
    </g>
</svg>